<svg width="113" height="64" viewBox="0 0 113 64" fill="none" xmlns="http://www.w3.org/2000/svg">
<g filter="url(#filter0_d_357_3)">
<path d="M64 28.1711C64 41.2145 50.5685 56.8945 34 56.8945C17.4315 56.8945 4 41.2145 4 28.1711C4 15.1278 17.4315 7.74561 34 7.74561C50.5685 7.74561 64 15.1278 64 28.1711Z" fill="#5ECE4D"/>
<path d="M64 28.1711C64 41.2145 50.5685 56.8945 34 56.8945C17.4315 56.8945 4 41.2145 4 28.1711C4 15.1278 17.4315 7.74561 34 7.74561C50.5685 7.74561 64 15.1278 64 28.1711Z" fill="url(#paint0_linear_357_3)" fill-opacity="0.3"/>
<path d="M32.0859 13.4902C33.1498 15.6179 36.0434 19.6179 39.1072 18.5966C42.171 17.5753 35.703 14.7668 32.0859 13.4902Z" fill="#43A534"/>
<path d="M39.1566 2.14872C36.0928 0.616801 35.7524 11.2977 35.9651 16.8296C36.4758 13.2549 39.1566 5.97859 40.4333 2.78728L39.1566 2.14872Z" fill="#410101"/>
</g>
<g filter="url(#filter1_d_357_3)">
<path d="M109 29.1711C109 42.2145 95.5685 57.8945 79 57.8945C62.4315 57.8945 49 42.2145 49 29.1711C49 16.1278 62.4315 8.74561 79 8.74561C95.5685 8.74561 109 16.1278 109 29.1711Z" fill="#5ECE4D"/>
<path d="M109 29.1711C109 42.2145 95.5685 57.8945 79 57.8945C62.4315 57.8945 49 42.2145 49 29.1711C49 16.1278 62.4315 8.74561 79 8.74561C95.5685 8.74561 109 16.1278 109 29.1711Z" fill="url(#paint1_linear_357_3)" fill-opacity="0.3"/>
<path d="M77.0859 14.4902C78.1498 16.6179 81.0434 20.6179 84.1072 19.5966C87.171 18.5753 80.703 15.7668 77.0859 14.4902Z" fill="#43A534"/>
<path d="M84.1566 3.14872C81.0928 1.6168 80.7524 12.2977 80.9651 17.8296C81.4758 14.2549 84.1566 6.97859 85.4333 3.78728L84.1566 3.14872Z" fill="#410101"/>
</g>
<defs>
<filter id="filter0_d_357_3" x="0" y="0" width="68" height="62.8945" filterUnits="userSpaceOnUse" color-interpolation-filters="sRGB">
<feFlood flood-opacity="0" result="BackgroundImageFix"/>
<feColorMatrix in="SourceAlpha" type="matrix" values="0 0 0 0 0 0 0 0 0 0 0 0 0 0 0 0 0 0 127 0" result="hardAlpha"/>
<feOffset dy="2"/>
<feGaussianBlur stdDeviation="2"/>
<feComposite in2="hardAlpha" operator="out"/>
<feColorMatrix type="matrix" values="0 0 0 0 0 0 0 0 0 0 0 0 0 0 0 0 0 0 0.25 0"/>
<feBlend mode="normal" in2="BackgroundImageFix" result="effect1_dropShadow_357_3"/>
<feBlend mode="normal" in="SourceGraphic" in2="effect1_dropShadow_357_3" result="shape"/>
</filter>
<filter id="filter1_d_357_3" x="45" y="1" width="68" height="62.8945" filterUnits="userSpaceOnUse" color-interpolation-filters="sRGB">
<feFlood flood-opacity="0" result="BackgroundImageFix"/>
<feColorMatrix in="SourceAlpha" type="matrix" values="0 0 0 0 0 0 0 0 0 0 0 0 0 0 0 0 0 0 127 0" result="hardAlpha"/>
<feOffset dy="2"/>
<feGaussianBlur stdDeviation="2"/>
<feComposite in2="hardAlpha" operator="out"/>
<feColorMatrix type="matrix" values="0 0 0 0 0 0 0 0 0 0 0 0 0 0 0 0 0 0 0.25 0"/>
<feBlend mode="normal" in2="BackgroundImageFix" result="effect1_dropShadow_357_3"/>
<feBlend mode="normal" in="SourceGraphic" in2="effect1_dropShadow_357_3" result="shape"/>
</filter>
<linearGradient id="paint0_linear_357_3" x1="59" y1="40.2598" x2="9" y2="19.7598" gradientUnits="userSpaceOnUse">
<stop stop-color="#7C5A00"/>
<stop offset="1" stop-color="#BDFF00"/>
</linearGradient>
<linearGradient id="paint1_linear_357_3" x1="104" y1="41.2598" x2="54" y2="20.7598" gradientUnits="userSpaceOnUse">
<stop stop-color="#7C5A00"/>
<stop offset="1" stop-color="#BDFF00"/>
</linearGradient>
</defs>
</svg>
