<svg width="119" height="109" viewBox="0 0 119 109" fill="none" xmlns="http://www.w3.org/2000/svg">
<g filter="url(#filter0_d_357_2)">
<path d="M64 28.1711C64 41.2145 50.5685 56.8945 34 56.8945C17.4315 56.8945 4 41.2145 4 28.1711C4 15.1278 17.4315 7.74561 34 7.74561C50.5685 7.74561 64 15.1278 64 28.1711Z" fill="#5ECE4D"/>
<path d="M64 28.1711C64 41.2145 50.5685 56.8945 34 56.8945C17.4315 56.8945 4 41.2145 4 28.1711C4 15.1278 17.4315 7.74561 34 7.74561C50.5685 7.74561 64 15.1278 64 28.1711Z" fill="url(#paint0_linear_357_2)" fill-opacity="0.3"/>
<path d="M32.0859 13.4902C33.1498 15.6179 36.0434 19.6179 39.1072 18.5966C42.171 17.5753 35.703 14.7668 32.0859 13.4902Z" fill="#43A534"/>
<path d="M39.1566 2.14872C36.0928 0.616801 35.7524 11.2977 35.9651 16.8296C36.4758 13.2549 39.1566 5.97859 40.4333 2.78728L39.1566 2.14872Z" fill="#410101"/>
</g>
<g filter="url(#filter1_d_357_2)">
<path d="M115 29.1711C115 42.2145 101.569 57.8945 85 57.8945C68.4315 57.8945 55 42.2145 55 29.1711C55 16.1278 68.4315 8.74561 85 8.74561C101.569 8.74561 115 16.1278 115 29.1711Z" fill="#5ECE4D"/>
<path d="M115 29.1711C115 42.2145 101.569 57.8945 85 57.8945C68.4315 57.8945 55 42.2145 55 29.1711C55 16.1278 68.4315 8.74561 85 8.74561C101.569 8.74561 115 16.1278 115 29.1711Z" fill="url(#paint1_linear_357_2)" fill-opacity="0.3"/>
<path d="M83.0859 14.4902C84.1498 16.6179 87.0434 20.6179 90.1072 19.5966C93.171 18.5753 86.703 15.7668 83.0859 14.4902Z" fill="#43A534"/>
<path d="M90.1566 3.14872C87.0928 1.6168 86.7524 12.2977 86.9651 17.8296C87.4758 14.2549 90.1566 6.97859 91.4333 3.78728L90.1566 3.14872Z" fill="#410101"/>
</g>
<g filter="url(#filter2_d_357_2)">
<path d="M64 72.1711C64 85.2145 50.5685 100.895 34 100.895C17.4315 100.895 4 85.2145 4 72.1711C4 59.1278 17.4315 51.7456 34 51.7456C50.5685 51.7456 64 59.1278 64 72.1711Z" fill="#5ECE4D"/>
<path d="M64 72.1711C64 85.2145 50.5685 100.895 34 100.895C17.4315 100.895 4 85.2145 4 72.1711C4 59.1278 17.4315 51.7456 34 51.7456C50.5685 51.7456 64 59.1278 64 72.1711Z" fill="url(#paint2_linear_357_2)" fill-opacity="0.3"/>
<path d="M32.0859 57.4902C33.1498 59.6179 36.0434 63.6179 39.1072 62.5966C42.171 61.5753 35.703 58.7668 32.0859 57.4902Z" fill="#43A534"/>
<path d="M39.1566 46.1487C36.0928 44.6168 35.7524 55.2977 35.9651 60.8296C36.4758 57.2549 39.1566 49.9786 40.4333 46.7873L39.1566 46.1487Z" fill="#410101"/>
</g>
<g filter="url(#filter3_d_357_2)">
<path d="M115 74.1711C115 87.2145 101.569 102.895 85 102.895C68.4315 102.895 55 87.2145 55 74.1711C55 61.1278 68.4315 53.7456 85 53.7456C101.569 53.7456 115 61.1278 115 74.1711Z" fill="#5ECE4D"/>
<path d="M115 74.1711C115 87.2145 101.569 102.895 85 102.895C68.4315 102.895 55 87.2145 55 74.1711C55 61.1278 68.4315 53.7456 85 53.7456C101.569 53.7456 115 61.1278 115 74.1711Z" fill="url(#paint3_linear_357_2)" fill-opacity="0.3"/>
<path d="M83.0859 59.4902C84.1498 61.6179 87.0434 65.6179 90.1072 64.5966C93.171 63.5753 86.703 60.7668 83.0859 59.4902Z" fill="#43A534"/>
<path d="M90.1566 48.1487C87.0928 46.6168 86.7524 57.2977 86.9651 62.8296C87.4758 59.2549 90.1566 51.9786 91.4333 48.7873L90.1566 48.1487Z" fill="#410101"/>
</g>
<defs>
<filter id="filter0_d_357_2" x="0" y="0" width="68" height="62.8945" filterUnits="userSpaceOnUse" color-interpolation-filters="sRGB">
<feFlood flood-opacity="0" result="BackgroundImageFix"/>
<feColorMatrix in="SourceAlpha" type="matrix" values="0 0 0 0 0 0 0 0 0 0 0 0 0 0 0 0 0 0 127 0" result="hardAlpha"/>
<feOffset dy="2"/>
<feGaussianBlur stdDeviation="2"/>
<feComposite in2="hardAlpha" operator="out"/>
<feColorMatrix type="matrix" values="0 0 0 0 0 0 0 0 0 0 0 0 0 0 0 0 0 0 0.25 0"/>
<feBlend mode="normal" in2="BackgroundImageFix" result="effect1_dropShadow_357_2"/>
<feBlend mode="normal" in="SourceGraphic" in2="effect1_dropShadow_357_2" result="shape"/>
</filter>
<filter id="filter1_d_357_2" x="51" y="1" width="68" height="62.8945" filterUnits="userSpaceOnUse" color-interpolation-filters="sRGB">
<feFlood flood-opacity="0" result="BackgroundImageFix"/>
<feColorMatrix in="SourceAlpha" type="matrix" values="0 0 0 0 0 0 0 0 0 0 0 0 0 0 0 0 0 0 127 0" result="hardAlpha"/>
<feOffset dy="2"/>
<feGaussianBlur stdDeviation="2"/>
<feComposite in2="hardAlpha" operator="out"/>
<feColorMatrix type="matrix" values="0 0 0 0 0 0 0 0 0 0 0 0 0 0 0 0 0 0 0.25 0"/>
<feBlend mode="normal" in2="BackgroundImageFix" result="effect1_dropShadow_357_2"/>
<feBlend mode="normal" in="SourceGraphic" in2="effect1_dropShadow_357_2" result="shape"/>
</filter>
<filter id="filter2_d_357_2" x="0" y="44" width="68" height="62.8945" filterUnits="userSpaceOnUse" color-interpolation-filters="sRGB">
<feFlood flood-opacity="0" result="BackgroundImageFix"/>
<feColorMatrix in="SourceAlpha" type="matrix" values="0 0 0 0 0 0 0 0 0 0 0 0 0 0 0 0 0 0 127 0" result="hardAlpha"/>
<feOffset dy="2"/>
<feGaussianBlur stdDeviation="2"/>
<feComposite in2="hardAlpha" operator="out"/>
<feColorMatrix type="matrix" values="0 0 0 0 0 0 0 0 0 0 0 0 0 0 0 0 0 0 0.25 0"/>
<feBlend mode="normal" in2="BackgroundImageFix" result="effect1_dropShadow_357_2"/>
<feBlend mode="normal" in="SourceGraphic" in2="effect1_dropShadow_357_2" result="shape"/>
</filter>
<filter id="filter3_d_357_2" x="51" y="46" width="68" height="62.8945" filterUnits="userSpaceOnUse" color-interpolation-filters="sRGB">
<feFlood flood-opacity="0" result="BackgroundImageFix"/>
<feColorMatrix in="SourceAlpha" type="matrix" values="0 0 0 0 0 0 0 0 0 0 0 0 0 0 0 0 0 0 127 0" result="hardAlpha"/>
<feOffset dy="2"/>
<feGaussianBlur stdDeviation="2"/>
<feComposite in2="hardAlpha" operator="out"/>
<feColorMatrix type="matrix" values="0 0 0 0 0 0 0 0 0 0 0 0 0 0 0 0 0 0 0.25 0"/>
<feBlend mode="normal" in2="BackgroundImageFix" result="effect1_dropShadow_357_2"/>
<feBlend mode="normal" in="SourceGraphic" in2="effect1_dropShadow_357_2" result="shape"/>
</filter>
<linearGradient id="paint0_linear_357_2" x1="59" y1="40.2598" x2="9" y2="19.7598" gradientUnits="userSpaceOnUse">
<stop stop-color="#7C5A00"/>
<stop offset="1" stop-color="#BDFF00"/>
</linearGradient>
<linearGradient id="paint1_linear_357_2" x1="110" y1="41.2598" x2="60" y2="20.7598" gradientUnits="userSpaceOnUse">
<stop stop-color="#7C5A00"/>
<stop offset="1" stop-color="#BDFF00"/>
</linearGradient>
<linearGradient id="paint2_linear_357_2" x1="59" y1="84.2598" x2="9" y2="63.7598" gradientUnits="userSpaceOnUse">
<stop stop-color="#7C5A00"/>
<stop offset="1" stop-color="#BDFF00"/>
</linearGradient>
<linearGradient id="paint3_linear_357_2" x1="110" y1="86.2598" x2="60" y2="65.7598" gradientUnits="userSpaceOnUse">
<stop stop-color="#7C5A00"/>
<stop offset="1" stop-color="#BDFF00"/>
</linearGradient>
</defs>
</svg>
