<svg width="86" height="82" viewBox="0 0 86 82" fill="none" xmlns="http://www.w3.org/2000/svg">
<mask id="path-1-inside-1_345_214" fill="white">
<path fill-rule="evenodd" clip-rule="evenodd" d="M41.4417 21.0977H51.9905V26.3986C55.424 27.3697 58.4952 29.2037 60.955 31.6515L65.6126 28.9625L70.887 38.098L66.297 40.7481C66.7943 42.5268 67.0602 44.4021 67.0602 46.3395C67.0602 48.0408 66.8551 49.6943 66.4684 51.2765L70.887 53.8276L65.6125 62.9631L61.4244 60.5451C58.8908 63.2345 55.646 65.2465 51.9905 66.2804V70.8279H41.4417V66.4783C37.6084 65.5493 34.1916 63.5544 31.5228 60.825L27.8194 62.9631L22.545 53.8276L26.3066 51.6558C25.8576 49.9592 25.6183 48.1773 25.6183 46.3395C25.6183 44.2663 25.9228 42.2641 26.4895 40.3754L22.5449 38.098L27.8193 28.9625L32.0034 31.3781C34.5967 28.8927 37.8348 27.0748 41.4417 26.2008V21.0977ZM46.3392 55.7581C51.541 55.7581 55.7578 51.5412 55.7578 46.3395C55.7578 41.1377 51.541 36.9209 46.3392 36.9209C41.1375 36.9209 36.9206 41.1377 36.9206 46.3395C36.9206 51.5412 41.1375 55.7581 46.3392 55.7581Z"/>
</mask>
<path d="M51.9905 21.0977H53.9905V19.0977H51.9905V21.0977ZM41.4417 21.0977V19.0977H39.4417V21.0977H41.4417ZM51.9905 26.3986H49.9905V27.9114L51.4462 28.3231L51.9905 26.3986ZM60.955 31.6515L59.5442 33.0692L60.6293 34.149L61.955 33.3836L60.955 31.6515ZM65.6126 28.9625L67.3447 27.9625L66.3447 26.2304L64.6126 27.2304L65.6126 28.9625ZM70.887 38.098L71.887 39.8301L73.6191 38.8301L72.6191 37.098L70.887 38.098ZM66.297 40.7481L65.297 39.016L63.953 39.792L64.3708 41.2866L66.297 40.7481ZM66.4684 51.2765L64.5256 50.8016L64.1695 52.2586L65.4684 53.0085L66.4684 51.2765ZM70.887 53.8276L72.619 54.8276L73.619 53.0955L71.887 52.0955L70.887 53.8276ZM65.6125 62.9631L64.6125 64.6952L66.3446 65.6952L67.3446 63.9631L65.6125 62.9631ZM61.4244 60.5451L62.4244 58.813L61.0538 58.0217L59.9686 59.1737L61.4244 60.5451ZM51.9905 66.2804L51.4462 64.3559L49.9905 64.7676V66.2804H51.9905ZM51.9905 70.8279V72.8279H53.9905V70.8279H51.9905ZM41.4417 70.8279H39.4417V72.8279H41.4417V70.8279ZM41.4417 66.4783H43.4417V64.905L41.9127 64.5345L41.4417 66.4783ZM31.5228 60.825L32.9528 59.4267L31.8673 58.3166L30.5228 59.0929L31.5228 60.825ZM27.8194 62.9631L26.0873 63.9631L27.0873 65.6952L28.8194 64.6952L27.8194 62.9631ZM22.545 53.8276L21.545 52.0955L19.8129 53.0955L20.8129 54.8276L22.545 53.8276ZM26.3066 51.6558L27.3066 53.3878L28.6315 52.6229L28.24 51.144L26.3066 51.6558ZM26.4895 40.3754L28.4051 40.9502L28.8599 39.4345L27.4895 38.6434L26.4895 40.3754ZM22.5449 38.098L20.8129 37.098L19.8129 38.8301L21.5449 39.8301L22.5449 38.098ZM27.8193 28.9625L28.8193 27.2304L27.0873 26.2304L26.0873 27.9625L27.8193 28.9625ZM32.0034 31.3781L31.0034 33.1102L32.3035 33.8608L33.3873 32.822L32.0034 31.3781ZM41.4417 26.2008L41.9127 28.1445L43.4417 27.774V26.2008H41.4417ZM51.9905 19.0977H41.4417V23.0977H51.9905V19.0977ZM53.9905 26.3986V21.0977H49.9905V26.3986H53.9905ZM62.3657 30.2339C59.6705 27.5518 56.3031 25.5399 52.5349 24.4741L51.4462 28.3231C54.5449 29.1996 57.3198 30.8557 59.5442 33.0692L62.3657 30.2339ZM64.6126 27.2304L59.955 29.9195L61.955 33.3836L66.6126 30.6945L64.6126 27.2304ZM72.6191 37.098L67.3447 27.9625L63.8806 29.9625L69.155 39.098L72.6191 37.098ZM67.297 42.4801L71.887 39.8301L69.887 36.366L65.297 39.016L67.297 42.4801ZM69.0602 46.3395C69.0602 44.2183 68.7689 42.1619 68.2231 40.2096L64.3708 41.2866C64.8196 42.8917 65.0602 44.5859 65.0602 46.3395H69.0602ZM68.4112 51.7514C68.8356 50.0149 69.0602 48.2021 69.0602 46.3395H65.0602C65.0602 47.8796 64.8746 49.3737 64.5256 50.8016L68.4112 51.7514ZM71.887 52.0955L67.4684 49.5444L65.4684 53.0085L69.887 55.5596L71.887 52.0955ZM67.3446 63.9631L72.619 54.8276L69.1549 52.8276L63.8805 61.9631L67.3446 63.9631ZM60.4244 62.2771L64.6125 64.6952L66.6125 61.2311L62.4244 58.813L60.4244 62.2771ZM52.5349 68.2049C56.5467 67.0702 60.1042 64.8631 62.8801 61.9165L59.9686 59.1737C57.6773 61.6059 54.7453 63.4228 51.4462 64.3559L52.5349 68.2049ZM53.9905 70.8279V66.2804H49.9905V70.8279H53.9905ZM41.4417 72.8279H51.9905V68.8279H41.4417V72.8279ZM39.4417 66.4783V70.8279H43.4417V66.4783H39.4417ZM30.0928 62.2232C33.0169 65.2137 36.7634 67.4024 40.9707 68.422L41.9127 64.5345C38.4533 63.6962 35.3663 61.895 32.9528 59.4267L30.0928 62.2232ZM28.8194 64.6952L32.5228 62.557L30.5228 59.0929L26.8194 61.2311L28.8194 64.6952ZM20.8129 54.8276L26.0873 63.9631L29.5514 61.9631L24.277 52.8276L20.8129 54.8276ZM25.3066 49.9237L21.545 52.0955L23.545 55.5596L27.3066 53.3878L25.3066 49.9237ZM23.6183 46.3395C23.6183 48.3515 23.8803 50.3054 24.3732 52.1675L28.24 51.144C27.8348 49.613 27.6183 48.003 27.6183 46.3395H23.6183ZM24.5739 39.8006C23.9518 41.8738 23.6183 44.0695 23.6183 46.3395H27.6183C27.6183 44.463 27.8938 42.6545 28.4051 40.9502L24.5739 39.8006ZM21.5449 39.8301L25.4895 42.1075L27.4895 38.6434L23.5449 36.366L21.5449 39.8301ZM26.0873 27.9625L20.8129 37.098L24.277 39.098L29.5514 29.9625L26.0873 27.9625ZM33.0034 29.6461L28.8193 27.2304L26.8193 30.6945L31.0034 33.1102L33.0034 29.6461ZM40.9707 24.257C37.012 25.2163 33.461 27.2108 30.6195 29.9342L33.3873 32.822C35.7323 30.5745 38.6577 28.9333 41.9127 28.1445L40.9707 24.257ZM39.4417 21.0977V26.2008H43.4417V21.0977H39.4417ZM53.7578 46.3395C53.7578 50.4367 50.4364 53.7581 46.3392 53.7581V57.7581C52.6455 57.7581 57.7578 52.6458 57.7578 46.3395H53.7578ZM46.3392 38.9209C50.4364 38.9209 53.7578 42.2423 53.7578 46.3395H57.7578C57.7578 40.0332 52.6455 34.9209 46.3392 34.9209V38.9209ZM38.9206 46.3395C38.9206 42.2423 42.242 38.9209 46.3392 38.9209V34.9209C40.0329 34.9209 34.9206 40.0332 34.9206 46.3395H38.9206ZM46.3392 53.7581C42.242 53.7581 38.9206 50.4367 38.9206 46.3395H34.9206C34.9206 52.6458 40.0329 57.7581 46.3392 57.7581V53.7581Z" fill="black" mask="url(#path-1-inside-1_345_214)"/>
<path d="M81.0001 45.9629L73.9901 55.1386L85.4415 56.6215L81.0001 45.9629ZM78.333 59.371L77.4092 58.9884L78.333 59.371ZM70.7379 70.7379L71.445 71.445H71.445L70.7379 70.7379ZM59.371 78.333L58.9884 77.4092L59.371 78.333ZM78.8773 54.633C78.4875 56.113 77.9974 57.5682 77.4092 58.9884L79.2569 59.7537C79.8797 58.2501 80.3986 56.7094 80.8114 55.1425L78.8773 54.633ZM77.4092 58.9884C75.6986 63.1179 73.1915 66.8702 70.0308 70.0308L71.445 71.445C74.7914 68.0987 77.4459 64.126 79.2569 59.7537L77.4092 58.9884ZM70.0308 70.0308C66.8702 73.1915 63.1179 75.6986 58.9884 77.4092L59.7537 79.2569C64.126 77.4459 68.0987 74.7914 71.445 71.445L70.0308 70.0308ZM58.9884 77.4092C54.8588 79.1197 50.4327 80.0001 45.9629 80.0001V82.0001C50.6954 82.0001 55.3815 81.068 59.7537 79.2569L58.9884 77.4092Z" fill="black"/>
<path d="M28.6318 17.5187L40.0832 19.0016L35.6417 8.34299L28.6318 17.5187ZM41.5771 13.1244L41.7076 14.1158L41.5771 13.1244ZM55.2187 14.0185L55.4775 13.0526L55.4775 13.0526L55.2187 14.0185ZM67.4797 20.0649L66.8709 20.8583L67.4797 20.0649ZM37.2017 15.022C38.6783 14.6196 40.1836 14.3165 41.7076 14.1158L41.4466 12.1329C39.833 12.3454 38.2393 12.6664 36.6759 13.0924L37.2017 15.022ZM41.7076 14.1158C46.1392 13.5324 50.6423 13.8275 54.9599 14.9844L55.4775 13.0526C50.9063 11.8277 46.1386 11.5152 41.4466 12.1329L41.7076 14.1158ZM54.9599 14.9844C59.2774 16.1413 63.3248 18.1372 66.8709 20.8583L68.0884 19.2716C64.3339 16.3906 60.0487 14.2774 55.4775 13.0526L54.9599 14.9844ZM66.8709 20.8583C70.4171 23.5794 73.3926 26.9722 75.6275 30.8432L77.3595 29.8432C74.9933 25.7448 71.843 22.1525 68.0884 19.2716L66.8709 20.8583Z" fill="black"/>
<path d="M30.3427 76.494L25.9013 65.8353L18.8913 75.011L30.3427 76.494ZM20.0645 67.4802L20.8578 66.8714L20.0645 67.4802ZM14.018 55.2192L13.0521 55.478L13.0521 55.478L14.018 55.2192ZM13.1239 41.5776L14.1153 41.7081L13.1239 41.5776ZM23.8956 70.3206C22.8088 69.2429 21.7936 68.0909 20.8578 66.8714L19.2711 68.0889C20.2618 69.3801 21.3367 70.5998 22.4874 71.7408L23.8956 70.3206ZM20.8578 66.8714C18.1367 63.3253 16.1408 59.2779 14.9839 54.9604L13.0521 55.478C14.2769 60.0492 16.3902 64.3344 19.2711 68.0889L20.8578 66.8714ZM14.9839 54.9604C13.827 50.6428 13.5319 46.1397 14.1153 41.7081L12.1324 41.4471C11.5147 46.1391 11.8272 50.9068 13.0521 55.478L14.9839 54.9604ZM14.1153 41.7081C14.6988 37.2765 16.1493 33.0033 18.3843 29.1323L16.6522 28.1323C14.286 32.2307 12.7502 36.7551 12.1324 41.4471L14.1153 41.7081Z" fill="black"/>
</svg>
