<svg width="73" height="73" viewBox="0 0 73 73" fill="none" xmlns="http://www.w3.org/2000/svg">
<circle cx="35.6165" cy="36.2058" r="21.6653" stroke="black" stroke-width="2"/>
<path d="M31.2009 6.51766C34.1555 3.65942 38.8445 3.65942 41.7991 6.51766C43.932 8.58106 46.8978 9.54469 49.8362 9.12908C53.9065 8.55335 57.6999 11.3095 58.4102 15.3585C58.9229 18.2815 60.7559 20.8043 63.3774 22.1953C67.0088 24.122 68.4577 28.5814 66.6524 32.2746C65.3491 34.9408 65.3491 38.0592 66.6524 40.7254C68.4577 44.4186 67.0088 48.878 63.3774 50.8048C60.7559 52.1957 58.9229 54.7185 58.4102 57.6415C57.6999 61.6905 53.9065 64.4466 49.8362 63.8709C46.8978 63.4553 43.932 64.4189 41.799 66.4823C38.8445 69.3406 34.1555 69.3406 31.2009 66.4823C29.068 64.4189 26.1022 63.4553 23.1638 63.8709C19.0935 64.4466 15.3001 61.6905 14.5898 57.6415C14.0771 54.7185 12.2441 52.1957 9.6226 50.8048C5.99124 48.878 4.54226 44.4186 6.34761 40.7254C7.6509 38.0592 7.6509 34.9408 6.34761 32.2746C4.54226 28.5814 5.99124 24.122 9.6226 22.1953C12.2441 20.8043 14.0771 18.2815 14.5898 15.3585C15.3001 11.3095 19.0935 8.55335 23.1638 9.12908C26.1022 9.54469 29.068 8.58106 31.2009 6.51766Z" stroke="black" stroke-width="2"/>
<path d="M28.5527 35.3224L34.7342 42.0926L46.8027 26.7861" stroke="black" stroke-width="2" stroke-linecap="round"/>
</svg>
