<svg width="339" height="227" viewBox="0 0 339 227" fill="none" xmlns="http://www.w3.org/2000/svg">
<mask id="mask0_342_161" style="mask-type:alpha" maskUnits="userSpaceOnUse" x="0" y="0" width="339" height="227">
<rect y="0.0888672" width="339" height="226" rx="23.4805" fill="#CAE296"/>
</mask>
<g mask="url(#mask0_342_161)">
<path d="M194.082 144.509C192.94 134.225 184.084 130.702 179.799 130.226C192.654 127.845 222.792 122.513 231.933 120.228C228.6 125.941 223.495 137.657 224.791 144.509C229.79 170.933 281.21 163.077 292.636 178.788C301.777 191.358 296.445 223.542 292.636 238.063C255.024 244.491 162.088 252.204 154.09 234.493C146.091 216.782 149.09 198.785 166.23 178.788C178.371 168.076 191.94 178.788 194.082 144.509Z" fill="#FFBB92"/>
<path d="M286.921 173.789C280.331 169.67 272.458 167.632 261.508 165.966C258.154 185.109 249.758 199.648 238.4 213.356C223.125 216.881 194.926 216.098 182.001 210.223C179.26 193.382 182.001 183.982 184.797 170.218C149.803 173.789 149.61 203.069 145.325 236.635C142.814 256.308 258.578 249.411 298.809 241.556C301.942 196.123 298.347 180.931 286.921 173.789Z" fill="#1D88EA"/>
<path d="M243.225 100.689C243.225 113.283 231.826 125.559 219.6 131.892C210.382 136.666 201.203 137.111 193.234 137.111C174.697 137.111 176.094 122.777 176.094 100.689C176.094 78.602 187.683 54.9834 206.221 54.9834C224.759 54.9834 243.225 78.602 243.225 100.689Z" fill="#FFBB92"/>
<path d="M185.305 117.989C189.77 118.737 200.041 119.336 205.4 115.744C212.098 111.254 190.328 138.944 185.305 117.989Z" fill="white"/>
<path d="M221.934 132.368C218.506 122.084 217.649 80.9485 205.508 60.2379C173.514 69.9504 174.42 107.639 178.229 125.255C174.182 120.494 165.801 104.944 169.8 80.9485C174.799 50.9539 192.094 43.4465 211.376 44.1607C226.802 44.732 243.577 60.2379 247.8 80.9485C252.799 105.468 239.068 237.064 229.784 251.347C219.785 247.777 225.362 142.652 221.934 132.368Z" fill="#630A0A"/>
<path d="M194.796 144.51C194.796 143.367 193.843 139.272 193.367 137.368C205.936 136.225 217.172 130.703 221.219 128.084C218.363 133.797 194.796 145.938 194.796 144.51Z" fill="#EFAA80"/>
<ellipse cx="49.4373" cy="32.1021" rx="49.4373" ry="32.1021" transform="matrix(-1 0 0 1 149.504 57.3223)" fill="white"/>
<ellipse cx="5.77838" cy="3.85226" rx="5.77838" ry="3.85226" transform="matrix(-1 0 0 1 164.914 61.7256)" fill="white"/>
<path d="M76.1965 89.6958C81.8767 89.4592 83.494 97.0919 83.5926 100.938C85.486 100.938 88.9178 97.9795 90.397 96.5003C87.0836 94.8436 86.2552 86.5403 86.2552 82.5957C80.5356 85.061 70.5163 89.9325 76.1965 89.6958Z" fill="#BEFFB4"/>
<circle cx="80.6348" cy="90.8789" r="5.02933" fill="#076321"/>
<circle cx="74.127" cy="91.4707" r="5.02933" fill="#076321"/>
<circle cx="72.3516" cy="86.1446" r="5.02933" fill="#076321"/>
<circle cx="75.3106" cy="82.5948" r="5.02933" fill="#076321"/>
<circle cx="80.043" cy="82.5948" r="5.02933" fill="#076321"/>
<circle cx="84.1856" cy="79.045" r="5.02933" fill="#076321"/>
<circle cx="89.5098" cy="79.045" r="5.02933" fill="#076321"/>
<circle cx="92.4688" cy="84.3702" r="5.02933" fill="#076321"/>
<circle cx="87.7344" cy="86.1446" r="5.02933" fill="#076321"/>
<path d="M133.361 86.3746C133.361 93.1743 126.359 101.349 117.721 101.349C109.084 101.349 102.082 93.1743 102.082 86.3746C102.082 79.575 109.084 75.7266 117.721 75.7266C126.359 75.7266 133.361 79.575 133.361 86.3746Z" fill="#5ECE4D"/>
<path d="M116.723 78.7217C117.277 79.8309 118.786 81.9161 120.383 81.3837C121.98 80.8513 118.608 79.3872 116.723 78.7217Z" fill="#43A534"/>
<path d="M120.409 72.809C118.812 72.0104 118.634 77.5784 118.745 80.4623C119.012 78.5988 120.409 74.8055 121.075 73.1419L120.409 72.809Z" fill="#410101"/>
</g>
</svg>
