<svg width="340" height="227" viewBox="0 0 340 227" fill="none" xmlns="http://www.w3.org/2000/svg">
<mask id="mask0_342_159" style="mask-type:alpha" maskUnits="userSpaceOnUse" x="0" y="0" width="340" height="227">
<rect width="340" height="226.177" rx="23.4989" fill="#CAE296"/>
</mask>
<g mask="url(#mask0_342_159)">
<path d="M255.918 115.658L181.383 180.647L202.312 234.254L340.368 227.278V115.658H255.918Z" fill="#2E0101"/>
<path d="M260.691 138.056C260.38 131.52 259.33 119.129 257.408 114.431C257 113.801 256.62 113.224 256.285 112.721C256.688 112.99 257.062 113.586 257.408 114.431C260.279 118.863 264.583 125.938 265.097 128.509C265.685 131.447 265.342 109.661 265.097 98.4014C268.035 108.682 273.248 130.492 270.605 135.486C268.279 135.241 263.041 135.412 260.691 138.056Z" fill="#04640D"/>
<path d="M242.334 157.883C242.023 151.348 240.973 138.957 239.05 134.258C238.642 133.628 238.263 133.051 237.928 132.548C238.331 132.817 238.705 133.413 239.05 134.258C241.921 138.69 246.225 145.765 246.74 148.337C247.327 151.274 246.985 129.488 246.74 118.229C249.677 128.509 254.891 150.319 252.247 155.313C249.922 155.068 244.684 155.239 242.334 157.883Z" fill="#04640D"/>
<path d="M219.568 180.648C219.257 174.112 218.207 161.721 216.285 157.023C215.877 156.392 215.497 155.816 215.162 155.313C215.565 155.581 215.939 156.178 216.285 157.023C219.155 161.455 223.46 168.529 223.974 171.101C224.562 174.039 224.219 152.253 223.974 140.993C226.912 151.274 232.125 173.084 229.482 178.077C227.156 177.833 221.918 178.004 219.568 180.648Z" fill="#04640D"/>
<path d="M260.691 185.788C260.38 179.253 259.33 166.862 257.408 162.163C257 161.533 256.62 160.956 256.285 160.453C256.688 160.722 257.062 161.318 257.408 162.163C260.279 166.595 264.583 173.67 265.097 176.242C265.685 179.179 265.342 157.394 265.097 146.134C268.035 156.415 273.248 178.224 270.605 183.218C268.279 182.973 263.041 183.145 260.691 185.788Z" fill="#04640D"/>
<path d="M283.455 160.82C283.144 154.285 282.094 141.894 280.171 137.195C279.763 136.565 279.384 135.988 279.049 135.486C279.452 135.754 279.826 136.351 280.171 137.195C283.042 141.628 287.347 148.702 287.861 151.274C288.448 154.211 288.106 132.426 287.861 121.166C290.798 131.447 296.012 153.257 293.368 158.25C291.043 158.005 285.805 158.177 283.455 160.82Z" fill="#04640D"/>
<path d="M304.752 138.056C304.441 131.52 303.391 119.129 301.468 114.431C301.06 113.801 300.681 113.224 300.346 112.721C300.749 112.99 301.123 113.586 301.468 114.431C304.339 118.863 308.643 125.938 309.158 128.509C309.745 131.447 309.403 109.661 309.158 98.4014C312.095 108.682 317.309 130.492 314.665 135.486C312.34 135.241 307.102 135.412 304.752 138.056Z" fill="#04640D"/>
<path d="M319.437 160.82C319.126 154.285 318.076 141.894 316.154 137.195C315.746 136.565 315.366 135.988 315.031 135.486C315.434 135.754 315.808 136.351 316.154 137.195C319.025 141.628 323.329 148.702 323.843 151.274C324.431 154.211 324.088 132.426 323.843 121.166C326.781 131.447 331.995 153.257 329.351 158.25C327.025 158.005 321.787 158.177 319.437 160.82Z" fill="#04640D"/>
<path d="M304.752 187.257C304.441 180.722 303.391 168.331 301.468 163.632C301.06 163.002 300.681 162.425 300.346 161.922C300.749 162.191 301.123 162.787 301.468 163.632C304.339 168.064 308.643 175.139 309.158 177.711C309.745 180.648 309.403 158.862 309.158 147.603C312.095 157.883 317.309 179.693 314.665 184.687C312.34 184.442 307.102 184.613 304.752 187.257Z" fill="#04640D"/>
<path d="M101.897 87.0351C112.824 105.268 136.826 110.974 155.506 99.7789C174.187 88.5837 180.472 64.7272 169.545 46.4939C158.618 28.2605 134.616 22.555 115.936 33.7501C97.2551 44.9453 97.9922 65.0611 101.897 87.0351Z" fill="#E6B36B"/>
<path d="M154.13 135.618C155.24 125.633 163.837 122.213 167.997 121.751C155.517 119.44 126.258 114.263 117.383 112.044C120.619 117.591 125.575 128.965 124.317 135.618C119.463 161.271 69.5425 153.644 58.449 168.898C49.5742 181.101 54.7512 212.347 58.449 226.445C94.965 232.685 185.192 240.174 192.957 222.979C200.723 205.784 197.811 188.312 181.17 168.898C169.384 158.498 156.21 168.898 154.13 135.618Z" fill="#FFBB92"/>
<path d="M103.515 153.645C123.483 172.503 151.586 166.125 163.142 160.578C197.116 164.045 197.303 192.472 201.463 225.059C203.901 244.158 91.511 237.463 52.4528 229.836C49.4108 185.728 52.9009 170.978 63.9943 164.045C70.3919 160.046 92.8836 155.262 103.515 153.645Z" fill="#E95858"/>
<ellipse cx="80.384" cy="28.8893" rx="80.384" ry="28.8893" transform="matrix(-0.857759 0.514051 0.514051 0.857759 189.594 5.87402)" fill="#EDBC77"/>
<path d="M106.418 93.076C106.418 114.52 136.954 128.436 154.952 128.436C172.949 128.436 171.592 114.52 171.592 93.076C171.592 71.6324 160.341 48.7021 142.343 48.7021C124.346 48.7021 106.418 71.6324 106.418 93.076Z" fill="#FFBB92"/>
<path d="M159.439 113.66C155.805 113.106 147.59 111.289 143.79 108.458C139.041 104.918 152.842 122.741 159.439 113.66Z" fill="white"/>
<path d="M127.089 123.832C130.417 113.848 131.249 73.9111 143.036 53.8042C174.098 63.2335 173.218 99.8238 169.52 116.926C173.449 112.304 181.586 97.2074 177.703 73.9111C172.85 44.7907 157.596 47.5641 138.876 48.2574C123.9 48.8121 112.76 67.4399 109.062 76.6844C104.209 100.489 105.596 128.685 114.609 142.552C124.316 139.085 123.761 133.816 127.089 123.832Z" fill="#989898"/>
<path d="M179.455 240.325L170.435 207.625L90.6396 202.84L84.3947 233.944C94.3865 241.601 151.932 241.388 179.455 240.325Z" fill="#0075FF"/>
<path d="M153.436 135.618C153.436 134.508 154.36 130.533 154.822 128.684C142.619 127.575 131.711 122.213 127.782 119.671C130.555 125.218 153.436 137.004 153.436 135.618Z" fill="#EFAA80"/>
<path d="M173.543 162.659C174.652 160.995 177.241 164.277 178.396 166.126C174.699 183.922 166.887 219.79 165.223 220.9C163.559 222.009 158.521 218.588 156.21 216.74C161.525 199.406 172.434 164.323 173.543 162.659Z" fill="#0075FF"/>
<path d="M89.6487 155.726C87.9847 155.171 83.8709 156.881 82.022 157.806C85.9509 177.912 94.0861 218.404 95.1955 219.513C96.3048 220.622 101.204 218.126 103.516 216.74C99.5866 196.633 91.3128 156.28 89.6487 155.726Z" fill="#0075FF"/>
<path d="M173.543 162.659C174.652 160.995 177.241 164.277 178.396 166.126C174.699 183.922 166.887 219.79 165.223 220.9C163.559 222.009 158.521 218.588 156.21 216.74C161.525 199.406 172.434 164.323 173.543 162.659Z" stroke="#096CE0" stroke-width="0.734341"/>
<path d="M89.6487 155.726C87.9847 155.171 83.8709 156.881 82.022 157.806C85.9509 177.912 94.0861 218.404 95.1955 219.513C96.3048 220.622 101.204 218.126 103.516 216.74C99.5866 196.633 91.3128 156.28 89.6487 155.726Z" stroke="#096CE0" stroke-width="0.734341"/>
</g>
</svg>
