<svg width="339" height="226" viewBox="0 0 339 226" fill="none" xmlns="http://www.w3.org/2000/svg">
<mask id="mask0_342_163" style="mask-type:alpha" maskUnits="userSpaceOnUse" x="0" y="0" width="339" height="226">
<rect y="0.332031" width="339" height="225.512" rx="23.4298" fill="#CAE296"/>
</mask>
<g mask="url(#mask0_342_163)">
<path d="M228.083 139.006C227.049 129.7 219.037 126.513 215.16 126.082C226.791 123.928 254.06 119.103 262.332 117.035C259.316 122.205 254.697 132.805 255.87 139.006C260.393 162.915 306.919 155.807 317.258 170.023C325.529 181.396 320.704 210.517 317.258 223.657C283.225 229.472 199.134 236.451 191.897 220.426C184.659 204.4 187.373 188.116 202.882 170.023C213.867 160.33 226.145 170.023 228.083 139.006Z" fill="#FFBB92"/>
<path d="M312.088 165.499C306.125 161.773 299.001 159.929 289.093 158.421C286.059 175.743 278.462 188.898 268.184 201.301C254.364 204.491 228.848 203.782 217.153 198.466C214.673 183.228 217.153 174.723 219.683 162.269C188.019 165.499 187.845 191.993 183.968 222.364C181.696 240.165 286.442 233.925 322.845 226.817C325.68 185.708 322.427 171.961 312.088 165.499Z" fill="#0B3053"/>
<path d="M272.551 99.3572C272.551 110.752 262.236 121.86 251.174 127.59C242.834 131.91 234.528 132.313 227.318 132.313C210.544 132.313 211.809 119.342 211.809 99.3572C211.809 79.3718 222.295 58.001 239.068 58.001C255.842 58.001 272.551 79.3718 272.551 99.3572Z" fill="#FFBB92"/>
<path d="M222.914 115.095C226.36 115.742 234.287 116.259 238.423 113.157C243.592 109.28 226.791 133.189 222.914 115.095Z" fill="white"/>
<path d="M253.285 128.021C250.184 118.715 249.408 81.4948 238.423 62.7553C229.462 65.4757 214.563 85.4359 213.806 99.5684C213.223 110.47 207.656 121.096 226.547 132.518C234.015 152.727 234.881 189.663 226.547 193.585C204.141 204.129 202.495 103.207 206.114 81.4948C210.637 54.3548 226.285 47.5619 243.732 48.2081C257.69 48.725 272.869 62.7553 276.69 81.4948C281.213 103.681 293.607 178.251 270.48 181.283C253.725 183.48 256.387 137.326 253.285 128.021Z" fill="#F1B43C"/>
<path d="M228.73 139.006C228.73 137.972 227.868 134.267 227.438 132.544C238.81 131.51 248.977 126.513 252.639 124.144C250.054 129.313 228.73 140.298 228.73 139.006Z" fill="#EFAA80"/>
<path d="M107.454 142.522C108.488 133.216 114.155 125.921 118.032 125.49C106.401 123.336 79.2953 116.575 71.024 114.507C74.0396 119.676 74.3786 136.321 73.2056 142.522C68.6979 166.348 28.6185 159.322 18.2795 173.539C10.0083 184.912 14.8331 214.033 18.2795 227.172C52.3122 232.988 136.403 239.967 143.64 223.942C150.878 207.916 148.164 191.632 132.655 173.539C121.67 163.846 109.392 173.539 107.454 142.522Z" fill="#ECA173"/>
<path d="M23.4492 169.015C29.4117 165.288 54.9652 153.797 64.8734 152.289C67.9079 169.611 71.4633 168.105 91.6724 171.18C103.534 172.498 104.16 171.1 115.854 165.784C147.518 169.015 147.692 195.509 151.569 225.88C153.842 243.68 49.0946 237.44 12.6926 230.332C9.85741 189.224 13.1102 175.477 23.4492 169.015Z" fill="#374047"/>
<path d="M62.9875 102.873C62.9875 114.267 73.3021 125.375 84.3644 131.105C92.7045 135.425 101.011 135.828 108.221 135.828C120.669 131.105 125.941 124.827 125.941 104.841C125.941 84.8562 113.243 61.5166 96.4697 61.5166C79.6963 61.5166 62.9875 82.8874 62.9875 102.873Z" fill="#ECA173"/>
<path d="M112.76 118.31C107.801 118.987 96.3954 119.529 90.4447 116.278C83.0063 112.215 107.181 137.27 112.76 118.31Z" fill="white"/>
<path d="M105.213 139.645C105.071 138.655 105.487 134.973 105.712 133.256C93.4083 133.999 81.8531 130.759 77.6135 129.047C81.0839 133.607 105.389 140.884 105.213 139.645Z" fill="#D7946B"/>
<circle cx="112.32" cy="71.4522" r="6.58992" fill="#291313"/>
<circle cx="106.17" cy="64.4229" r="6.58992" fill="#291313"/>
<circle cx="100.02" cy="65.3009" r="6.58992" fill="#291313"/>
<circle cx="97.3829" cy="60.9073" r="6.58992" fill="#291313"/>
<circle cx="91.2325" cy="67.0587" r="6.58992" fill="#291313"/>
<circle cx="86.8399" cy="64.4229" r="6.58992" fill="#291313"/>
<circle cx="78.0528" cy="67.9376" r="6.58992" fill="#291313"/>
<circle cx="69.2657" cy="67.9376" r="6.58992" fill="#291313"/>
<circle cx="69.2657" cy="77.6026" r="6.58992" fill="#291313"/>
<circle cx="64.8731" cy="84.6319" r="6.58992" fill="#291313"/>
<circle cx="69.2657" cy="94.297" r="6.58992" fill="#291313"/>
<circle cx="64.8731" cy="97.8116" r="6.58992" fill="#291313"/>
<circle cx="58.7227" cy="103.962" r="6.58992" fill="#291313"/>
<circle cx="58.7227" cy="113.628" r="6.58992" fill="#291313"/>
<circle cx="66.6309" cy="117.143" r="6.58992" fill="#291313"/>
<circle cx="52.5723" cy="96.0538" r="6.58992" fill="#291313"/>
<circle cx="64.8731" cy="103.962" r="6.58992" fill="#291313"/>
<circle cx="114.078" cy="61.7862" r="6.58992" fill="#291313"/>
<circle cx="103.535" cy="56.5147" r="6.58992" fill="#291313"/>
<circle cx="92.9903" cy="49.4854" r="6.58992" fill="#291313"/>
<circle cx="73.6602" cy="84.6319" r="6.58992" fill="#291313"/>
<circle cx="82.4473" cy="78.4806" r="6.58992" fill="#291313"/>
<circle cx="76.297" cy="72.3311" r="6.58992" fill="#291313"/>
<ellipse cx="89.9152" cy="72.3311" rx="9.66522" ry="6.58992" fill="#291313"/>
<circle cx="103.535" cy="73.2091" r="6.58992" fill="#291313"/>
<circle cx="113.199" cy="77.6026" r="6.58992" fill="#291313"/>
<circle cx="58.7227" cy="90.7823" r="6.58992" fill="#291313"/>
<circle cx="60.4805" cy="79.3604" r="6.58992" fill="#291313"/>
<circle cx="62.2384" cy="70.5733" r="6.58992" fill="#291313"/>
<circle cx="78.0528" cy="63.544" r="6.58992" fill="#291313"/>
<circle cx="86.8399" cy="56.5147" r="6.58992" fill="#291313"/>
<path d="M145.778 182.326C145.066 175.923 139.553 173.73 136.885 173.433C144.889 171.951 163.653 168.631 169.345 167.208C167.27 170.765 164.091 178.06 164.898 182.326C168.011 198.779 200.026 193.887 207.141 203.67C212.832 211.496 209.512 231.535 207.141 240.577C183.722 244.578 125.857 249.381 120.877 238.353C115.897 227.326 117.764 216.12 128.436 203.67C135.995 197 144.444 203.67 145.778 182.326Z" fill="#FFBB92"/>
<path d="M203.584 199.275C199.481 196.711 184.793 193.036 177.975 191.998C180.091 208.625 175.675 198.881 168.603 207.416C162.859 216.183 156.093 211.074 148.046 207.416C139.998 211.044 138.257 205.622 139.998 197.052C118.209 199.275 118.09 217.506 115.422 238.405C113.858 250.654 185.936 246.36 210.985 241.469C212.936 213.182 210.698 203.722 203.584 199.275Z" fill="#FC6BED"/>
<path d="M176.377 160.715C176.377 168.556 169.279 176.199 161.667 180.142C155.928 183.115 150.213 183.392 145.251 183.392C133.709 183.392 134.579 174.467 134.579 160.715C134.579 146.963 141.795 132.257 153.337 132.257C164.879 132.257 176.377 146.963 176.377 160.715Z" fill="#FFBB92"/>
<path d="M142.221 171.544C144.592 171.989 150.047 172.345 152.892 170.21C156.45 167.542 144.889 183.995 142.221 171.544Z" fill="white"/>
<path d="M168.603 172.348C162.731 169.021 168.302 159.244 160.743 146.349C154.577 148.221 145.088 153 135.349 153C134.442 153 128.17 163.363 130.66 148.423C131.382 144.094 132.515 140.517 133.979 137.582C132.32 137.582 128.638 138.065 127.187 140C125.736 141.935 132.024 175.471 135.349 191.998L132.024 216.183L127.187 201.067C124.869 180.711 121.019 138.791 124.164 133.954C127.308 129.117 132.017 134.357 133.979 137.582C138.832 127.855 147.324 125.176 156.547 125.518C166.151 125.873 174.347 137.582 174.347 137.582C178.177 134.055 186.5 129.601 189.161 140C191.821 150.4 191.68 182.626 191.277 197.439L183.417 222.531C183.955 195.021 183.055 140 175.154 140C176.903 145.438 180.764 158.635 179.225 164.79C177.789 170.534 176.203 176.652 168.603 172.348Z" fill="#F1B43C"/>
<path d="M146.223 187.998C146.223 187.286 145.63 184.737 145.334 183.551C153.16 182.84 160.156 179.401 162.676 177.771C160.897 181.328 146.223 188.887 146.223 187.998Z" fill="#EFAA80"/>
</g>
</svg>
