<svg width="295" height="342" viewBox="0 0 295 342" fill="none" xmlns="http://www.w3.org/2000/svg">
<path d="M292.999 304.667C259.301 327.71 165.359 361.025 59.1774 309.937L55.146 177.877C57.6269 175.646 56.1797 161.034 55.146 154.007C55.7662 149.977 56.6345 139.375 55.146 129.207C57.6269 127.968 56.1797 111.124 55.146 102.857C55.0426 96.6573 54.5878 83.0793 53.5955 78.3673C54.1123 72.8907 54.8359 60.1394 53.5955 52.9474C54.8359 39.8041 53.0786 24.1178 52.0449 17.9175C92.3591 0.246671 223.845 -5.3336 290.519 14.8175C288.534 29.2014 289.692 43.5441 290.519 48.9174C290.002 55.221 289.278 69.0061 290.519 73.7173C289.278 80.331 287.542 94.612 290.519 98.8273C288.534 108.003 289.692 120.424 290.519 125.487C288.865 128.898 286.549 138.632 290.519 150.287C288.534 160.455 291.346 172.917 292.999 177.877V304.667Z" fill="#86AAC0"/>
<path d="M55.146 177.877L59.1774 309.937C165.359 361.025 259.301 327.71 292.999 304.667V177.877M55.146 177.877C91.7388 191.104 190.54 209.621 292.999 177.877M55.146 177.877C57.6269 175.646 56.1797 161.034 55.146 154.007M292.999 177.877C291.346 172.917 288.534 160.455 290.519 150.287M290.519 150.287C258.164 163.617 165.793 183.023 55.146 154.007M290.519 150.287C286.549 138.632 288.865 128.898 290.519 125.487M55.146 154.007C55.7662 149.977 56.6345 139.375 55.146 129.207M55.146 129.207C103.833 145.327 240.157 147.807 290.519 125.487M55.146 129.207C57.6269 127.968 56.1797 111.124 55.146 102.857M290.519 125.487C289.692 120.424 288.534 108.003 290.519 98.8273M290.519 98.8273C247.413 116.497 113.198 125.425 55.146 102.857M290.519 98.8273C287.542 94.612 289.278 80.331 290.519 73.7173M55.146 102.857C55.0426 96.6573 54.5878 83.0793 53.5955 78.3673M53.5955 78.3673C112.206 92.0073 249.832 91.8213 290.519 73.7173M53.5955 78.3673C54.1123 72.8907 54.8359 60.1394 53.5955 52.9474M290.519 73.7173C289.278 69.0061 290.002 55.221 290.519 48.9174M53.5955 52.9474C105.074 62.2474 238.668 68.2614 290.519 48.9174M53.5955 52.9474C54.8359 39.8041 53.0786 24.1178 52.0449 17.9175M290.519 48.9174C289.692 43.5441 288.534 29.2014 290.519 14.8175M290.519 14.8175C238.42 27.8374 73.3804 32.3014 52.0449 17.9175M290.519 14.8175C223.845 -5.3336 92.3591 0.246671 52.0449 17.9175" stroke="black" stroke-width="3"/>
<path d="M96.875 257.738V209.333C158.617 214.253 222.998 211.383 247.472 209.333V257.738C192.262 266.07 151.506 264.086 96.875 257.738Z" fill="#E0D7AD"/>
<path d="M117.188 242.254L119.17 240.854L122.54 242.254L124.522 240.854L127.694 242.254" stroke="black" stroke-opacity="0.8" stroke-width="3"/>
<path d="M117.188 218.438L119.17 217.038L122.54 218.438L124.522 217.038L127.694 218.438" stroke="black" stroke-opacity="0.8" stroke-width="3"/>
<path d="M143.104 218.438L145.086 217.038L148.456 218.438L150.438 217.038L153.61 218.438" stroke="black" stroke-opacity="0.8" stroke-width="3"/>
<path d="M143.104 242.956L145.086 241.555L148.456 242.956L150.438 241.555L153.61 242.956" stroke="black" stroke-opacity="0.8" stroke-width="3"/>
<path d="M168.32 242.956L170.303 241.555L173.673 242.956L175.655 241.555L178.827 242.956" stroke="black" stroke-opacity="0.8" stroke-width="3"/>
<path d="M192.836 242.956L194.818 241.555L198.188 242.956L200.171 241.555L203.343 242.956" stroke="black" stroke-opacity="0.8" stroke-width="3"/>
<path d="M192.836 218.438L194.818 217.038L198.188 218.438L200.171 217.038L203.343 218.438" stroke="black" stroke-opacity="0.8" stroke-width="3"/>
<path d="M168.32 218.438L170.303 217.038L173.673 218.438L175.655 217.038L178.827 218.438" stroke="black" stroke-opacity="0.8" stroke-width="3"/>
<path d="M218.752 218.438L220.734 217.038L224.104 218.438L226.087 217.038L229.259 218.438" stroke="black" stroke-opacity="0.8" stroke-width="3"/>
<path d="M218.752 242.956L220.734 241.555L224.104 242.956L226.087 241.555L229.259 242.956" stroke="black" stroke-opacity="0.8" stroke-width="3"/>
<path d="M54.8457 53.1337C150.473 66.8987 201.762 65.655 289.846 50.6821V72.7463C289.846 72.7463 233.11 101.114 54.8457 78.7001V53.1337Z" fill="#CF0121"/>
<path d="M54.8457 104.615C158.512 127.38 243.617 115.122 289.846 99.3618V124.228C289.846 124.228 217.7 158.9 54.8457 130.182V104.615Z" fill="#CF0121"/>
<path d="M56.5977 153.997C131.896 170.458 185.831 182.015 289.847 151.195L292.649 177.812C292.649 177.812 201.591 217.388 56.5977 178.863V153.997Z" fill="#CF0121"/>
<path d="M55.146 177.877L59.1774 309.937C165.359 361.025 259.301 327.71 292.999 304.667V177.877M55.146 177.877C91.7388 191.104 190.54 209.621 292.999 177.877M55.146 177.877C57.6269 175.646 56.1797 161.034 55.146 154.007M292.999 177.877C291.346 172.917 288.534 160.455 290.519 150.287M290.519 150.287C258.164 163.617 165.793 183.023 55.146 154.007M290.519 150.287C286.549 138.632 288.865 128.898 290.519 125.487M55.146 154.007C55.7662 149.977 56.6345 139.375 55.146 129.207M55.146 129.207C103.833 145.327 240.157 147.807 290.519 125.487M55.146 129.207C57.6269 127.968 56.1797 111.124 55.146 102.857M290.519 125.487C289.692 120.424 288.534 108.003 290.519 98.8273M290.519 98.8273C247.413 116.497 113.198 125.425 55.146 102.857M290.519 98.8273C287.542 94.612 289.278 80.331 290.519 73.7173M55.146 102.857C55.0426 96.6573 54.5878 83.0793 53.5955 78.3673M53.5955 78.3673C112.206 92.0073 249.832 91.8213 290.519 73.7173M53.5955 78.3673C54.1123 72.8907 54.8359 60.1394 53.5955 52.9474M290.519 73.7173C289.278 69.0061 290.002 55.221 290.519 48.9174M53.5955 52.9474C105.074 62.2474 238.668 68.2614 290.519 48.9174M53.5955 52.9474C54.8359 39.8041 53.0786 24.1178 52.0449 17.9175M290.519 48.9174C289.692 43.5441 288.534 29.2014 290.519 14.8175M290.519 14.8175C238.42 27.8374 73.3804 32.3014 52.0449 17.9175M290.519 14.8175C223.845 -5.3336 92.3591 0.246671 52.0449 17.9175" stroke="black" stroke-width="3"/>
<path d="M285.996 191.472V297.94L269.536 309.147L253.776 313.35C244.905 315.101 226.185 319.162 222.257 321.404L222.256 321.405C228.91 320.938 218.333 323.646 222.255 321.405C222.256 321.405 222.257 321.404 222.257 321.404L260.079 286.383L269.536 269.922V239.803L285.996 191.472Z" fill="#5F8094" stroke="#86AAC0" stroke-width="3"/>
<path d="M287.047 175.711L285.646 156.799L266.034 171.158L213.5 190.07L287.047 175.711Z" fill="#891204"/>
<path d="M287.047 123.879L285.646 104.967L266.034 119.326L213.5 138.238L287.047 123.879Z" fill="#891204"/>
<path d="M283.895 150.496V131.934L262.881 145.943L210.348 164.855L283.895 150.496Z" fill="#5F8094"/>
<path d="M283.895 96.3377V79.7505L262.881 92.2692L210.348 109.169L283.895 96.3377Z" fill="#5F8094"/>
<path d="M283.895 42.2386V20.9121L262.881 37.0075L210.348 58.7364L283.895 42.2386Z" fill="#5F8094"/>
<path d="M59.2722 26.7378L59.2712 50.3318L77.8293 37.8986L134.425 32.5231L59.2722 26.7378Z" fill="#92B5C9"/>
<path d="M59.2713 83.615L59.2699 100.413L71.3081 92.709L129.795 92.708L59.2713 83.615Z" fill="#92B5C9"/>
<path d="M61.5725 137.538L61.5725 152.23L76.2102 146.293L132.246 146.293L61.5725 137.538Z" fill="#92B5C9"/>
<path d="M60.1016 160.651L60.1013 176.061L77.2164 171.124L139.953 173.26L60.1016 160.651Z" fill="#FF8D80"/>
<path d="M60.1008 110.916L60.1005 126.325L77.2156 121.389L133.648 121.389L60.1008 110.916Z" fill="#FF8D80"/>
<path d="M60.0993 59.7823L60.099 75.1916L77.2141 70.255L128.043 66.0909L60.0993 59.7823Z" fill="#FF8D80"/>
<path d="M59.2709 190.083L63.252 281.478L76.5608 205.831L132.947 200.226L59.2709 190.083Z" fill="#92B5C9"/>
<path d="M287.397 70.5553L285.996 53.833L266.383 66.5296L213.85 83.2519L287.397 70.5553Z" fill="#891204"/>
<circle cx="196.339" cy="310.198" r="18.2117" fill="#FFFAF6"/>
<rect x="146.605" y="301.792" width="18.2117" height="23.8153" fill="#444242"/>
<rect x="150.809" y="305.294" width="9.80629" height="16.8108" fill="black"/>
<path d="M160.615 314.401H150.809" stroke="#444242" stroke-opacity="0.5" stroke-width="3"/>
<path d="M200.891 328.059V317.202L211.748 312.649L212.448 318.603C210.697 322.456 206.6 326.395 200.891 328.059Z" fill="#F5F4F4"/>
<path d="M196.338 329.109V301.091L201.241 310.543V329.109H196.338Z" fill="#D9D9D9"/>
<circle cx="155.711" cy="310.197" r="1.4009" fill="#444242"/>
<circle cx="171.121" cy="310.197" r="3.50225" fill="#C03222"/>
<circle cx="223.655" cy="226.144" r="4.90314" fill="#030302"/>
<circle cx="197.739" cy="226.144" r="4.90314" fill="#C03222"/>
<circle cx="173.223" cy="226.144" r="4.90314" fill="#E0C725"/>
<circle cx="148.007" cy="226.144" r="4.90314" fill="#E76D41"/>
<circle cx="122.792" cy="226.144" r="4.90314" fill="#CC6641"/>
<circle cx="122.792" cy="249.259" r="4.90314" fill="#E06E27"/>
<circle cx="148.007" cy="249.259" r="4.90314" fill="#39A248"/>
<circle cx="173.223" cy="249.259" r="4.90314" fill="#DF2A35"/>
<circle cx="197.739" cy="249.259" r="4.90314" fill="#E07829"/>
<circle cx="223.655" cy="249.259" r="4.90314" fill="#551F1C"/>
<path d="M83.2324 337.079V321.739L109.989 328.874V337.079C98.858 342.217 87.5134 339.22 83.2324 337.079Z" fill="black" stroke="black" stroke-width="3"/>
<path d="M263.391 337.079V321.739L236.634 328.874V337.079C247.765 342.217 259.11 339.22 263.391 337.079Z" fill="black" stroke="black" stroke-width="3"/>
<path d="M161.578 260.25V161.812C131.466 162.566 114.986 158.039 86.5781 138.375C58.1699 158.039 41.6904 162.566 11.5781 161.812V260.25C14.0781 275.875 63.1406 311.812 86.5781 316.5C110.016 311.812 159.078 275.875 161.578 260.25Z" fill="#EDEDED"/>
<path d="M161.578 260.25V161.812C131.466 162.566 114.986 158.039 86.5781 138.375C58.1699 158.039 41.6904 162.566 11.5781 161.812V260.25C14.0781 275.875 63.1406 311.812 86.5781 316.5C110.016 311.812 159.078 275.875 161.578 260.25Z" stroke="white" stroke-width="19"/>
<path d="M161.578 260.25V161.812C131.466 162.566 114.986 158.039 86.5781 138.375C58.1699 158.039 41.6904 162.566 11.5781 161.812V260.25C14.0781 275.875 63.1406 311.812 86.5781 316.5C110.016 311.812 159.078 275.875 161.578 260.25Z" stroke="#268504" stroke-width="19"/>
<path d="M171.158 264.441V153.431C137.2 154.281 118.615 149.175 86.5789 127C54.5424 149.175 35.9581 154.281 2 153.431V264.441C4.8193 282.061 60.148 322.589 86.5789 327.875C113.01 322.589 168.339 282.061 171.158 264.441Z" stroke="white" stroke-width="4"/>
<path d="M171.158 264.441V153.431C137.2 154.281 118.615 149.175 86.5789 127C54.5424 149.175 35.9581 154.281 2 153.431V264.441C4.8193 282.061 60.148 322.589 86.5789 327.875C113.01 322.589 168.339 282.061 171.158 264.441Z" stroke="#EDEDED" stroke-width="4"/>
</svg>
