<svg width="462" height="298" viewBox="0 0 462 298" fill="none" xmlns="http://www.w3.org/2000/svg">
<rect x="1.39718" y="1.39718" width="459.206" height="294.339" rx="14.6028" fill="#88D0F5" stroke="#5DA0C2" stroke-width="2.79435"/>
<g filter="url(#filter0_d_328_221)">
<circle cx="324.61" cy="142.978" r="76.8448" fill="white"/>
</g>
<g filter="url(#filter1_d_328_221)">
<path d="M339.633 104.338L316.693 87.5566V217.96C329.799 222.354 336.361 225.243 346.5 220.754V117.87C346.5 112.522 343.949 107.495 339.633 104.338Z" fill="#F7F4F4"/>
</g>
<g filter="url(#filter2_d_328_221)">
<circle cx="192.026" cy="148.567" r="20.0262" fill="#F57600"/>
</g>
<ellipse cx="203.67" cy="143.909" rx="2.79435" ry="5.12298" transform="rotate(-21.6043 203.67 143.909)" fill="#FFEF9C"/>
<path d="M236.589 142.512C236.589 190.868 275.79 230.069 324.146 230.069C332.209 230.069 340.017 228.979 347.432 226.938M324.146 54.9556C352.539 54.9556 377.776 68.471 393.774 89.4193M324.146 61.4758V47.9697M242.644 142.512H229.604M264.186 206.317L255.218 213.768M347.432 226.938L350.692 235.657M347.432 226.938C371.725 220.253 391.79 203.363 402.729 181.167M402.729 181.167C408.475 169.509 411.702 156.388 411.702 142.512C411.702 122.55 405.022 104.147 393.774 89.4193M402.729 181.167L411.702 186.29M393.774 89.4193L402.729 83.3649" stroke="black" stroke-width="1.8629" stroke-linecap="round"/>
<path d="M334.471 41.5277V43.1432C334.471 44.0115 334.393 44.7441 334.238 45.3408C334.083 45.9375 333.86 46.4178 333.569 46.7816C333.278 47.1455 332.926 47.4099 332.514 47.5748C332.106 47.7349 331.645 47.815 331.131 47.815C330.723 47.815 330.347 47.764 330.003 47.6622C329.659 47.5603 329.348 47.3978 329.072 47.1746C328.8 46.9466 328.567 46.6507 328.373 46.2868C328.179 45.923 328.031 45.4815 327.929 44.9624C327.827 44.4433 327.776 43.8369 327.776 43.1432V41.5277C327.776 40.6593 327.854 39.9316 328.009 39.3446C328.169 38.7576 328.395 38.287 328.686 37.9329C328.977 37.5739 329.326 37.3167 329.734 37.1615C330.146 37.0063 330.607 36.9286 331.116 36.9286C331.529 36.9286 331.907 36.9796 332.252 37.0814C332.601 37.1785 332.911 37.3361 333.183 37.5545C333.455 37.7679 333.685 38.0541 333.874 38.4131C334.068 38.7673 334.216 39.2015 334.318 39.7157C334.42 40.2299 334.471 40.8339 334.471 41.5277ZM333.118 43.3615V41.3021C333.118 40.8267 333.088 40.4094 333.03 40.0504C332.977 39.6866 332.897 39.3761 332.79 39.119C332.683 38.8619 332.548 38.6533 332.383 38.4932C332.223 38.3331 332.036 38.2167 331.822 38.1439C331.614 38.0663 331.378 38.0275 331.116 38.0275C330.796 38.0275 330.512 38.0881 330.265 38.2094C330.018 38.3258 329.809 38.5126 329.639 38.7697C329.474 39.0268 329.348 39.364 329.261 39.7812C329.173 40.1984 329.13 40.7054 329.13 41.3021V43.3615C329.13 43.8369 329.157 44.2565 329.21 44.6204C329.268 44.9842 329.353 45.2996 329.465 45.5664C329.576 45.8284 329.712 46.0442 329.872 46.214C330.032 46.3838 330.217 46.51 330.425 46.5924C330.639 46.6701 330.874 46.7089 331.131 46.7089C331.461 46.7089 331.75 46.6458 331.997 46.5197C332.244 46.3935 332.451 46.1971 332.615 45.9302C332.785 45.6586 332.911 45.3117 332.994 44.8896C333.076 44.4627 333.118 43.9533 333.118 43.3615ZM336.276 38.8134C336.276 38.4689 336.361 38.1536 336.53 37.8674C336.7 37.5811 336.926 37.3531 337.207 37.1833C337.489 37.0087 337.797 36.9214 338.131 36.9214C338.466 36.9214 338.772 37.0087 339.048 37.1833C339.325 37.3531 339.546 37.5811 339.711 37.8674C339.875 38.1536 339.958 38.4689 339.958 38.8134C339.958 39.1578 339.875 39.4731 339.711 39.7594C339.546 40.0407 339.325 40.2663 339.048 40.4361C338.772 40.6011 338.466 40.6835 338.131 40.6835C337.797 40.6835 337.489 40.6011 337.207 40.4361C336.926 40.2663 336.7 40.0407 336.53 39.7594C336.361 39.4731 336.276 39.1578 336.276 38.8134ZM337.178 38.8134C337.178 39.0802 337.27 39.3033 337.455 39.4828C337.644 39.6623 337.869 39.7521 338.131 39.7521C338.393 39.7521 338.612 39.6623 338.786 39.4828C338.966 39.3033 339.056 39.0802 339.056 38.8134C339.056 38.5417 338.966 38.3137 338.786 38.1293C338.612 37.945 338.393 37.8528 338.131 37.8528C337.869 37.8528 337.644 37.945 337.455 38.1293C337.27 38.3137 337.178 38.5417 337.178 38.8134Z" fill="black"/>
<path d="M408.623 85.4515V96.105H407.277V87.1325L404.563 88.1221V86.9069L408.412 85.4515H408.623ZM414.285 91.062L413.208 90.7855L413.739 85.5097H419.175V86.7541H414.881L414.561 89.6358C414.755 89.5242 415 89.4199 415.296 89.3228C415.597 89.2258 415.941 89.1773 416.33 89.1773C416.82 89.1773 417.259 89.2622 417.647 89.432C418.035 89.5969 418.365 89.8347 418.636 90.1451C418.913 90.4556 419.124 90.8292 419.269 91.2658C419.415 91.7024 419.488 92.19 419.488 92.7285C419.488 93.2379 419.417 93.706 419.277 94.1329C419.141 94.5598 418.935 94.9334 418.658 95.2536C418.382 95.5689 418.032 95.8139 417.61 95.9885C417.193 96.1632 416.701 96.2505 416.133 96.2505C415.706 96.2505 415.301 96.1923 414.918 96.0759C414.539 95.9546 414.2 95.7727 413.899 95.5301C413.603 95.2827 413.361 94.9771 413.171 94.6132C412.987 94.2445 412.871 93.8127 412.822 93.3179H414.103C414.161 93.7157 414.277 94.0505 414.452 94.3221C414.627 94.5938 414.855 94.8 415.136 94.9407C415.422 95.0765 415.755 95.1444 416.133 95.1444C416.453 95.1444 416.737 95.0886 416.985 94.9771C417.232 94.8655 417.441 94.7054 417.61 94.4968C417.78 94.2882 417.909 94.0359 417.996 93.74C418.088 93.444 418.134 93.1117 418.134 92.743C418.134 92.4083 418.088 92.0978 417.996 91.8116C417.904 91.5253 417.766 91.2755 417.581 91.062C417.402 90.8486 417.181 90.6836 416.919 90.5672C416.657 90.4459 416.356 90.3853 416.017 90.3853C415.565 90.3853 415.223 90.4459 414.991 90.5672C414.763 90.6885 414.527 90.8534 414.285 91.062ZM421.038 87.2489C421.038 86.9045 421.123 86.5891 421.292 86.3029C421.462 86.0167 421.688 85.7887 421.969 85.6189C422.251 85.4442 422.559 85.3569 422.893 85.3569C423.228 85.3569 423.534 85.4442 423.81 85.6189C424.087 85.7887 424.308 86.0167 424.473 86.3029C424.637 86.5891 424.72 86.9045 424.72 87.2489C424.72 87.5934 424.637 87.9087 424.473 88.1949C424.308 88.4763 424.087 88.7019 423.81 88.8717C423.534 89.0366 423.228 89.1191 422.893 89.1191C422.559 89.1191 422.251 89.0366 421.969 88.8717C421.688 88.7019 421.462 88.4763 421.292 88.1949C421.123 87.9087 421.038 87.5934 421.038 87.2489ZM421.94 87.2489C421.94 87.5157 422.032 87.7389 422.217 87.9184C422.406 88.0979 422.631 88.1876 422.893 88.1876C423.155 88.1876 423.374 88.0979 423.548 87.9184C423.728 87.7389 423.818 87.5157 423.818 87.2489C423.818 86.9772 423.728 86.7492 423.548 86.5649C423.374 86.3805 423.155 86.2884 422.893 86.2884C422.631 86.2884 422.406 86.3805 422.217 86.5649C422.032 86.7492 421.94 86.9772 421.94 87.2489Z" fill="black"/>
<path d="M404.3 195.399H405.261C405.732 195.399 406.12 195.321 406.425 195.166C406.736 195.006 406.966 194.79 407.117 194.519C407.272 194.242 407.349 193.932 407.349 193.587C407.349 193.18 407.282 192.838 407.146 192.561C407.01 192.285 406.806 192.076 406.534 191.935C406.263 191.795 405.918 191.724 405.501 191.724C405.123 191.724 404.788 191.799 404.497 191.95C404.211 192.095 403.985 192.304 403.82 192.576C403.66 192.847 403.58 193.167 403.58 193.536H402.234C402.234 192.998 402.37 192.508 402.641 192.066C402.913 191.625 403.294 191.273 403.784 191.011C404.279 190.749 404.851 190.618 405.501 190.618C406.141 190.618 406.702 190.732 407.182 190.96C407.662 191.183 408.036 191.518 408.303 191.964C408.57 192.406 408.703 192.956 408.703 193.616C408.703 193.883 408.64 194.169 408.514 194.475C408.392 194.776 408.201 195.057 407.939 195.319C407.682 195.581 407.347 195.797 406.935 195.967C406.522 196.132 406.027 196.214 405.45 196.214H404.3V195.399ZM404.3 196.505V195.697H405.45C406.124 195.697 406.682 195.777 407.124 195.938C407.565 196.098 407.912 196.311 408.164 196.578C408.422 196.845 408.601 197.138 408.703 197.458C408.81 197.774 408.863 198.089 408.863 198.404C408.863 198.899 408.778 199.338 408.608 199.722C408.443 200.105 408.208 200.43 407.902 200.697C407.602 200.964 407.248 201.165 406.84 201.301C406.433 201.437 405.989 201.504 405.508 201.504C405.047 201.504 404.613 201.439 404.206 201.308C403.803 201.177 403.447 200.988 403.136 200.74C402.826 200.488 402.583 200.18 402.408 199.816C402.234 199.447 402.146 199.028 402.146 198.557H403.493C403.493 198.926 403.573 199.249 403.733 199.525C403.898 199.802 404.131 200.017 404.431 200.173C404.737 200.323 405.096 200.398 405.508 200.398C405.921 200.398 406.275 200.328 406.571 200.187C406.872 200.042 407.102 199.823 407.262 199.532C407.427 199.241 407.51 198.875 407.51 198.434C407.51 197.992 407.417 197.631 407.233 197.349C407.049 197.063 406.787 196.852 406.447 196.716C406.112 196.575 405.717 196.505 405.261 196.505H404.3ZM417.37 195.217V196.833C417.37 197.701 417.292 198.434 417.137 199.03C416.982 199.627 416.759 200.107 416.467 200.471C416.176 200.835 415.825 201.099 415.412 201.264C415.005 201.424 414.544 201.504 414.03 201.504C413.622 201.504 413.246 201.453 412.902 201.352C412.557 201.25 412.247 201.087 411.97 200.864C411.699 200.636 411.466 200.34 411.272 199.976C411.078 199.612 410.93 199.171 410.828 198.652C410.726 198.133 410.675 197.526 410.675 196.833V195.217C410.675 194.349 410.753 193.621 410.908 193.034C411.068 192.447 411.294 191.976 411.585 191.622C411.876 191.263 412.225 191.006 412.632 190.851C413.045 190.696 413.506 190.618 414.015 190.618C414.427 190.618 414.806 190.669 415.15 190.771C415.5 190.868 415.81 191.026 416.082 191.244C416.353 191.457 416.584 191.744 416.773 192.103C416.967 192.457 417.115 192.891 417.217 193.405C417.319 193.919 417.37 194.523 417.37 195.217ZM416.016 197.051V194.992C416.016 194.516 415.987 194.099 415.929 193.74C415.876 193.376 415.796 193.066 415.689 192.808C415.582 192.551 415.446 192.343 415.281 192.183C415.121 192.023 414.934 191.906 414.721 191.833C414.512 191.756 414.277 191.717 414.015 191.717C413.695 191.717 413.411 191.778 413.164 191.899C412.916 192.015 412.708 192.202 412.538 192.459C412.373 192.716 412.247 193.053 412.159 193.471C412.072 193.888 412.029 194.395 412.029 194.992V197.051C412.029 197.526 412.055 197.946 412.109 198.31C412.167 198.674 412.252 198.989 412.363 199.256C412.475 199.518 412.611 199.734 412.771 199.903C412.931 200.073 413.115 200.199 413.324 200.282C413.537 200.36 413.773 200.398 414.03 200.398C414.36 200.398 414.648 200.335 414.896 200.209C415.143 200.083 415.349 199.887 415.514 199.62C415.684 199.348 415.81 199.001 415.893 198.579C415.975 198.152 416.016 197.643 416.016 197.051ZM419.174 192.503C419.174 192.158 419.259 191.843 419.429 191.557C419.599 191.271 419.825 191.043 420.106 190.873C420.387 190.698 420.695 190.611 421.03 190.611C421.365 190.611 421.67 190.698 421.947 190.873C422.224 191.043 422.444 191.271 422.609 191.557C422.774 191.843 422.857 192.158 422.857 192.503C422.857 192.847 422.774 193.163 422.609 193.449C422.444 193.73 422.224 193.956 421.947 194.126C421.67 194.291 421.365 194.373 421.03 194.373C420.695 194.373 420.387 194.291 420.106 194.126C419.825 193.956 419.599 193.73 419.429 193.449C419.259 193.163 419.174 192.847 419.174 192.503ZM420.077 192.503C420.077 192.77 420.169 192.993 420.353 193.172C420.543 193.352 420.768 193.442 421.03 193.442C421.292 193.442 421.51 193.352 421.685 193.172C421.865 192.993 421.954 192.77 421.954 192.503C421.954 192.231 421.865 192.003 421.685 191.819C421.51 191.634 421.292 191.542 421.03 191.542C420.768 191.542 420.543 191.634 420.353 191.819C420.169 192.003 420.077 192.231 420.077 192.503Z" fill="black"/>
<path d="M351.746 246.229V247.335H344.091V246.542L348.835 239.199H349.934L348.755 241.324L345.619 246.229H351.746ZM350.269 239.199V249.794H348.923V239.199H350.269ZM354.671 244.751L353.594 244.475L354.126 239.199H359.562V240.444H355.268L354.948 243.325C355.142 243.214 355.387 243.109 355.683 243.012C355.984 242.915 356.328 242.867 356.716 242.867C357.206 242.867 357.645 242.952 358.033 243.121C358.422 243.286 358.751 243.524 359.023 243.835C359.3 244.145 359.511 244.519 359.656 244.955C359.802 245.392 359.874 245.879 359.874 246.418C359.874 246.927 359.804 247.395 359.663 247.822C359.528 248.249 359.321 248.623 359.045 248.943C358.768 249.258 358.419 249.503 357.997 249.678C357.58 249.853 357.087 249.94 356.52 249.94C356.093 249.94 355.688 249.882 355.305 249.765C354.926 249.644 354.587 249.462 354.286 249.22C353.99 248.972 353.747 248.667 353.558 248.303C353.374 247.934 353.257 247.502 353.209 247.007H354.49C354.548 247.405 354.664 247.74 354.839 248.012C355.013 248.283 355.241 248.489 355.523 248.63C355.809 248.766 356.141 248.834 356.52 248.834C356.84 248.834 357.124 248.778 357.371 248.667C357.619 248.555 357.827 248.395 357.997 248.186C358.167 247.978 358.295 247.725 358.383 247.429C358.475 247.133 358.521 246.801 358.521 246.432C358.521 246.098 358.475 245.787 358.383 245.501C358.291 245.215 358.152 244.965 357.968 244.751C357.788 244.538 357.568 244.373 357.306 244.257C357.044 244.135 356.743 244.075 356.403 244.075C355.952 244.075 355.61 244.135 355.377 244.257C355.149 244.378 354.914 244.543 354.671 244.751ZM361.424 240.938C361.424 240.594 361.509 240.279 361.679 239.992C361.849 239.706 362.075 239.478 362.356 239.308C362.637 239.134 362.945 239.046 363.28 239.046C363.615 239.046 363.92 239.134 364.197 239.308C364.474 239.478 364.694 239.706 364.859 239.992C365.024 240.279 365.107 240.594 365.107 240.938C365.107 241.283 365.024 241.598 364.859 241.884C364.694 242.166 364.474 242.391 364.197 242.561C363.92 242.726 363.615 242.809 363.28 242.809C362.945 242.809 362.637 242.726 362.356 242.561C362.075 242.391 361.849 242.166 361.679 241.884C361.509 241.598 361.424 241.283 361.424 240.938ZM362.327 240.938C362.327 241.205 362.419 241.428 362.603 241.608C362.793 241.787 363.018 241.877 363.28 241.877C363.542 241.877 363.76 241.787 363.935 241.608C364.115 241.428 364.204 241.205 364.204 240.938C364.204 240.667 364.115 240.439 363.935 240.254C363.76 240.07 363.542 239.978 363.28 239.978C363.018 239.978 362.793 240.07 362.603 240.254C362.419 240.439 362.327 240.667 362.327 240.938Z" fill="black"/>
<path d="M249.157 217.761H249.273V218.904H249.157C248.443 218.904 247.847 219.02 247.366 219.253C246.886 219.481 246.505 219.789 246.224 220.177C245.943 220.56 245.739 220.992 245.613 221.473C245.491 221.953 245.431 222.44 245.431 222.935V224.492C245.431 224.963 245.487 225.38 245.598 225.744C245.71 226.103 245.862 226.406 246.057 226.654C246.251 226.901 246.469 227.088 246.711 227.214C246.959 227.34 247.216 227.403 247.483 227.403C247.793 227.403 248.07 227.345 248.312 227.229C248.555 227.107 248.759 226.94 248.924 226.726C249.093 226.508 249.222 226.251 249.309 225.955C249.397 225.659 249.44 225.334 249.44 224.98C249.44 224.665 249.402 224.361 249.324 224.07C249.246 223.774 249.127 223.513 248.967 223.284C248.807 223.052 248.606 222.87 248.363 222.739C248.126 222.603 247.842 222.535 247.512 222.535C247.138 222.535 246.789 222.627 246.464 222.811C246.144 222.991 245.879 223.229 245.671 223.525C245.467 223.816 245.351 224.133 245.322 224.478L244.608 224.471C244.676 223.927 244.802 223.464 244.987 223.081C245.176 222.693 245.409 222.377 245.685 222.135C245.967 221.887 246.28 221.708 246.624 221.596C246.973 221.48 247.342 221.422 247.73 221.422C248.259 221.422 248.715 221.521 249.098 221.72C249.482 221.919 249.797 222.186 250.044 222.52C250.292 222.85 250.474 223.224 250.59 223.641C250.711 224.053 250.772 224.478 250.772 224.915C250.772 225.414 250.702 225.882 250.561 226.319C250.42 226.756 250.209 227.139 249.928 227.469C249.651 227.799 249.309 228.056 248.902 228.24C248.494 228.424 248.021 228.517 247.483 228.517C246.91 228.517 246.411 228.4 245.984 228.167C245.557 227.93 245.203 227.614 244.921 227.221C244.64 226.828 244.429 226.392 244.288 225.911C244.148 225.431 244.077 224.944 244.077 224.449V223.816C244.077 223.069 244.152 222.336 244.303 221.618C244.453 220.9 244.713 220.25 245.081 219.668C245.455 219.086 245.972 218.622 246.631 218.278C247.291 217.933 248.133 217.761 249.157 217.761ZM259.024 222.229V223.845C259.024 224.713 258.946 225.446 258.791 226.042C258.636 226.639 258.413 227.119 258.122 227.483C257.831 227.847 257.479 228.112 257.067 228.276C256.659 228.437 256.198 228.517 255.684 228.517C255.276 228.517 254.9 228.466 254.556 228.364C254.212 228.262 253.901 228.099 253.625 227.876C253.353 227.648 253.12 227.352 252.926 226.988C252.732 226.625 252.584 226.183 252.482 225.664C252.38 225.145 252.329 224.539 252.329 223.845V222.229C252.329 221.361 252.407 220.633 252.562 220.046C252.722 219.459 252.948 218.989 253.239 218.635C253.53 218.276 253.879 218.018 254.287 217.863C254.699 217.708 255.16 217.63 255.669 217.63C256.082 217.63 256.46 217.681 256.805 217.783C257.154 217.88 257.464 218.038 257.736 218.256C258.008 218.47 258.238 218.756 258.427 219.115C258.621 219.469 258.769 219.903 258.871 220.417C258.973 220.932 259.024 221.536 259.024 222.229ZM257.671 224.063V222.004C257.671 221.528 257.641 221.111 257.583 220.752C257.53 220.388 257.45 220.078 257.343 219.821C257.236 219.564 257.101 219.355 256.936 219.195C256.776 219.035 256.589 218.918 256.375 218.846C256.167 218.768 255.931 218.729 255.669 218.729C255.349 218.729 255.065 218.79 254.818 218.911C254.571 219.027 254.362 219.214 254.192 219.471C254.027 219.728 253.901 220.066 253.814 220.483C253.726 220.9 253.683 221.407 253.683 222.004V224.063C253.683 224.539 253.709 224.958 253.763 225.322C253.821 225.686 253.906 226.001 254.018 226.268C254.129 226.53 254.265 226.746 254.425 226.916C254.585 227.085 254.77 227.212 254.978 227.294C255.192 227.372 255.427 227.411 255.684 227.411C256.014 227.411 256.303 227.347 256.55 227.221C256.797 227.095 257.004 226.899 257.168 226.632C257.338 226.36 257.464 226.013 257.547 225.591C257.629 225.164 257.671 224.655 257.671 224.063ZM260.829 219.515C260.829 219.171 260.914 218.855 261.083 218.569C261.253 218.283 261.479 218.055 261.76 217.885C262.042 217.71 262.35 217.623 262.684 217.623C263.019 217.623 263.325 217.71 263.601 217.885C263.878 218.055 264.099 218.283 264.264 218.569C264.428 218.855 264.511 219.171 264.511 219.515C264.511 219.859 264.428 220.175 264.264 220.461C264.099 220.742 263.878 220.968 263.601 221.138C263.325 221.303 263.019 221.385 262.684 221.385C262.35 221.385 262.042 221.303 261.76 221.138C261.479 220.968 261.253 220.742 261.083 220.461C260.914 220.175 260.829 219.859 260.829 219.515ZM261.731 219.515C261.731 219.782 261.823 220.005 262.008 220.185C262.197 220.364 262.422 220.454 262.684 220.454C262.946 220.454 263.165 220.364 263.339 220.185C263.519 220.005 263.609 219.782 263.609 219.515C263.609 219.243 263.519 219.015 263.339 218.831C263.165 218.647 262.946 218.554 262.684 218.554C262.422 218.554 262.197 218.647 262.008 218.831C261.823 219.015 261.731 219.243 261.731 219.515Z" fill="black"/>
<path d="M225.52 135.153C225.52 135.798 225.369 136.346 225.069 136.797C224.773 137.244 224.37 137.583 223.861 137.816C223.356 138.049 222.786 138.166 222.151 138.166C221.515 138.166 220.943 138.049 220.433 137.816C219.924 137.583 219.521 137.244 219.225 136.797C218.929 136.346 218.781 135.798 218.781 135.153C218.781 134.731 218.861 134.345 219.021 133.996C219.186 133.642 219.417 133.334 219.713 133.072C220.014 132.81 220.368 132.608 220.775 132.468C221.188 132.322 221.641 132.249 222.136 132.249C222.786 132.249 223.366 132.376 223.875 132.628C224.385 132.875 224.785 133.217 225.076 133.654C225.372 134.09 225.52 134.59 225.52 135.153ZM224.166 135.124C224.166 134.731 224.081 134.384 223.912 134.083C223.742 133.778 223.504 133.54 223.198 133.37C222.893 133.2 222.539 133.115 222.136 133.115C221.724 133.115 221.367 133.2 221.066 133.37C220.77 133.54 220.54 133.778 220.375 134.083C220.21 134.384 220.128 134.731 220.128 135.124C220.128 135.531 220.208 135.881 220.368 136.172C220.533 136.458 220.765 136.679 221.066 136.834C221.372 136.984 221.733 137.059 222.151 137.059C222.568 137.059 222.927 136.984 223.228 136.834C223.528 136.679 223.759 136.458 223.919 136.172C224.084 135.881 224.166 135.531 224.166 135.124ZM225.272 130.183C225.272 130.697 225.136 131.16 224.865 131.573C224.593 131.985 224.222 132.31 223.751 132.548C223.281 132.785 222.747 132.904 222.151 132.904C221.544 132.904 221.003 132.785 220.528 132.548C220.057 132.31 219.688 131.985 219.422 131.573C219.155 131.16 219.021 130.697 219.021 130.183C219.021 129.567 219.155 129.043 219.422 128.611C219.693 128.179 220.064 127.849 220.535 127.621C221.006 127.393 221.542 127.279 222.143 127.279C222.75 127.279 223.288 127.393 223.759 127.621C224.229 127.849 224.598 128.179 224.865 128.611C225.136 129.043 225.272 129.567 225.272 130.183ZM223.926 130.205C223.926 129.85 223.851 129.538 223.701 129.266C223.55 128.994 223.342 128.781 223.075 128.625C222.808 128.465 222.497 128.385 222.143 128.385C221.789 128.385 221.479 128.461 221.212 128.611C220.95 128.756 220.744 128.965 220.593 129.237C220.448 129.508 220.375 129.831 220.375 130.205C220.375 130.568 220.448 130.886 220.593 131.158C220.744 131.43 220.952 131.641 221.219 131.791C221.486 131.941 221.796 132.017 222.151 132.017C222.505 132.017 222.813 131.941 223.075 131.791C223.342 131.641 223.55 131.43 223.701 131.158C223.851 130.886 223.926 130.568 223.926 130.205ZM233.874 131.878V133.494C233.874 134.362 233.796 135.095 233.641 135.691C233.486 136.288 233.262 136.768 232.971 137.132C232.68 137.496 232.329 137.76 231.916 137.925C231.509 138.086 231.048 138.166 230.534 138.166C230.126 138.166 229.75 138.115 229.406 138.013C229.061 137.911 228.751 137.748 228.474 137.525C228.203 137.297 227.97 137.001 227.776 136.637C227.582 136.274 227.434 135.832 227.332 135.313C227.23 134.794 227.179 134.187 227.179 133.494V131.878C227.179 131.01 227.257 130.282 227.412 129.695C227.572 129.108 227.797 128.638 228.089 128.283C228.38 127.924 228.729 127.667 229.136 127.512C229.549 127.357 230.01 127.279 230.519 127.279C230.931 127.279 231.31 127.33 231.654 127.432C232.004 127.529 232.314 127.687 232.586 127.905C232.857 128.118 233.088 128.405 233.277 128.764C233.471 129.118 233.619 129.552 233.721 130.066C233.823 130.581 233.874 131.185 233.874 131.878ZM232.52 133.712V131.653C232.52 131.177 232.491 130.76 232.433 130.401C232.38 130.037 232.299 129.727 232.193 129.47C232.086 129.212 231.95 129.004 231.785 128.844C231.625 128.684 231.438 128.567 231.225 128.494C231.016 128.417 230.781 128.378 230.519 128.378C230.199 128.378 229.915 128.439 229.668 128.56C229.42 128.676 229.212 128.863 229.042 129.12C228.877 129.377 228.751 129.715 228.663 130.132C228.576 130.549 228.532 131.056 228.532 131.653V133.712C228.532 134.187 228.559 134.607 228.612 134.971C228.671 135.335 228.756 135.65 228.867 135.917C228.979 136.179 229.115 136.395 229.275 136.565C229.435 136.734 229.619 136.861 229.828 136.943C230.041 137.021 230.276 137.059 230.534 137.059C230.863 137.059 231.152 136.996 231.4 136.87C231.647 136.744 231.853 136.548 232.018 136.281C232.188 136.009 232.314 135.662 232.396 135.24C232.479 134.813 232.52 134.304 232.52 133.712ZM235.678 129.164C235.678 128.82 235.763 128.504 235.933 128.218C236.103 127.932 236.328 127.704 236.61 127.534C236.891 127.359 237.199 127.272 237.534 127.272C237.869 127.272 238.174 127.359 238.451 127.534C238.727 127.704 238.948 127.932 239.113 128.218C239.278 128.504 239.361 128.82 239.361 129.164C239.361 129.508 239.278 129.824 239.113 130.11C238.948 130.391 238.727 130.617 238.451 130.787C238.174 130.952 237.869 131.034 237.534 131.034C237.199 131.034 236.891 130.952 236.61 130.787C236.328 130.617 236.103 130.391 235.933 130.11C235.763 129.824 235.678 129.508 235.678 129.164ZM236.581 129.164C236.581 129.431 236.673 129.654 236.857 129.833C237.046 130.013 237.272 130.103 237.534 130.103C237.796 130.103 238.014 130.013 238.189 129.833C238.368 129.654 238.458 129.431 238.458 129.164C238.458 128.892 238.368 128.664 238.189 128.48C238.014 128.296 237.796 128.203 237.534 128.203C237.272 128.203 237.046 128.296 236.857 128.48C236.673 128.664 236.581 128.892 236.581 129.164Z" fill="black"/>
<g filter="url(#filter3_d_328_221)">
<rect x="95.0078" y="100.597" width="64.2702" height="107.117" fill="#2D2D27"/>
<path d="M104.789 116.897L95.4746 101.062H159.279L151.362 116.897H104.789Z" fill="#494943"/>
<rect x="107.117" y="119.226" width="41.9153" height="74.5161" fill="#494943" stroke="#181818" stroke-width="1.8629"/>
<g filter="url(#filter4_d_328_221)">
<circle cx="128.074" cy="137.389" r="7.91734" fill="#F50000"/>
</g>
<ellipse cx="132.677" cy="135.548" rx="1.10474" ry="2.02537" transform="rotate(-21.6043 132.677 135.548)" fill="#FFEF9C"/>
</g>
<defs>
<filter id="filter0_d_328_221" x="244.04" y="66.1333" width="161.141" height="161.141" filterUnits="userSpaceOnUse" color-interpolation-filters="sRGB">
<feFlood flood-opacity="0" result="BackgroundImageFix"/>
<feColorMatrix in="SourceAlpha" type="matrix" values="0 0 0 0 0 0 0 0 0 0 0 0 0 0 0 0 0 0 127 0" result="hardAlpha"/>
<feOffset dy="3.72581"/>
<feGaussianBlur stdDeviation="1.8629"/>
<feComposite in2="hardAlpha" operator="out"/>
<feColorMatrix type="matrix" values="0 0 0 0 0 0 0 0 0 0 0 0 0 0 0 0 0 0 0.25 0"/>
<feBlend mode="normal" in2="BackgroundImageFix" result="effect1_dropShadow_328_221"/>
<feBlend mode="normal" in="SourceGraphic" in2="effect1_dropShadow_328_221" result="shape"/>
</filter>
<filter id="filter1_d_328_221" x="316.693" y="87.5566" width="37.2583" height="142.903" filterUnits="userSpaceOnUse" color-interpolation-filters="sRGB">
<feFlood flood-opacity="0" result="BackgroundImageFix"/>
<feColorMatrix in="SourceAlpha" type="matrix" values="0 0 0 0 0 0 0 0 0 0 0 0 0 0 0 0 0 0 127 0" result="hardAlpha"/>
<feOffset dx="3.72581" dy="3.72581"/>
<feGaussianBlur stdDeviation="1.8629"/>
<feComposite in2="hardAlpha" operator="out"/>
<feColorMatrix type="matrix" values="0 0 0 0 0 0 0 0 0 0 0 0 0 0 0 0 0 0 0.25 0"/>
<feBlend mode="normal" in2="BackgroundImageFix" result="effect1_dropShadow_328_221"/>
<feBlend mode="normal" in="SourceGraphic" in2="effect1_dropShadow_328_221" result="shape"/>
</filter>
<filter id="filter2_d_328_221" x="168.274" y="124.815" width="47.5043" height="47.5039" filterUnits="userSpaceOnUse" color-interpolation-filters="sRGB">
<feFlood flood-opacity="0" result="BackgroundImageFix"/>
<feColorMatrix in="SourceAlpha" type="matrix" values="0 0 0 0 0 0 0 0 0 0 0 0 0 0 0 0 0 0 127 0" result="hardAlpha"/>
<feOffset/>
<feGaussianBlur stdDeviation="1.8629"/>
<feComposite in2="hardAlpha" operator="out"/>
<feColorMatrix type="matrix" values="0 0 0 0 0 0 0 0 0 0 0 0 0 0 0 0 0 0 0.25 0"/>
<feBlend mode="normal" in2="BackgroundImageFix" result="effect1_dropShadow_328_221"/>
<feBlend mode="normal" in="SourceGraphic" in2="effect1_dropShadow_328_221" result="shape"/>
</filter>
<filter id="filter3_d_328_221" x="91.282" y="98.7338" width="71.7231" height="114.568" filterUnits="userSpaceOnUse" color-interpolation-filters="sRGB">
<feFlood flood-opacity="0" result="BackgroundImageFix"/>
<feColorMatrix in="SourceAlpha" type="matrix" values="0 0 0 0 0 0 0 0 0 0 0 0 0 0 0 0 0 0 127 0" result="hardAlpha"/>
<feOffset dy="1.8629"/>
<feGaussianBlur stdDeviation="1.8629"/>
<feComposite in2="hardAlpha" operator="out"/>
<feColorMatrix type="matrix" values="0 0 0 0 0 0 0 0 0 0 0 0 0 0 0 0 0 0 0.25 0"/>
<feBlend mode="normal" in2="BackgroundImageFix" result="effect1_dropShadow_328_221"/>
<feBlend mode="normal" in="SourceGraphic" in2="effect1_dropShadow_328_221" result="shape"/>
</filter>
<filter id="filter4_d_328_221" x="116.43" y="125.746" width="23.2856" height="23.2861" filterUnits="userSpaceOnUse" color-interpolation-filters="sRGB">
<feFlood flood-opacity="0" result="BackgroundImageFix"/>
<feColorMatrix in="SourceAlpha" type="matrix" values="0 0 0 0 0 0 0 0 0 0 0 0 0 0 0 0 0 0 127 0" result="hardAlpha"/>
<feOffset/>
<feGaussianBlur stdDeviation="1.8629"/>
<feComposite in2="hardAlpha" operator="out"/>
<feColorMatrix type="matrix" values="0 0 0 0 0 0 0 0 0 0 0 0 0 0 0 0 0 0 0.25 0"/>
<feBlend mode="normal" in2="BackgroundImageFix" result="effect1_dropShadow_328_221"/>
<feBlend mode="normal" in="SourceGraphic" in2="effect1_dropShadow_328_221" result="shape"/>
</filter>
</defs>
</svg>
