<svg width="275" height="326" viewBox="0 0 275 326" fill="none" xmlns="http://www.w3.org/2000/svg">
<path d="M267.263 220.651V50.5099C215.217 51.8129 186.733 43.987 137.632 10C88.5302 43.987 60.0466 51.8129 8 50.5099V220.651C12.3211 247.658 97.1217 309.773 137.632 317.875C178.141 309.773 262.942 247.658 267.263 220.651Z" fill="white"/>
<path d="M267.263 220.651V50.5099C215.217 51.8129 186.733 43.987 137.632 10C88.5302 43.987 60.0466 51.8129 8 50.5099V220.651C12.3211 247.658 97.1217 309.773 137.632 317.875C178.141 309.773 262.942 247.658 267.263 220.651Z" stroke="white" stroke-width="15"/>
<path d="M267.263 220.651V50.5099C215.217 51.8129 186.733 43.987 137.632 10C88.5302 43.987 60.0466 51.8129 8 50.5099V220.651C12.3211 247.658 97.1217 309.773 137.632 317.875C178.141 309.773 262.942 247.658 267.263 220.651Z" stroke="#E70024" stroke-width="15"/>
<path d="M77.4817 70.1797L79.8783 76.487L82.9212 70.4648L84.6454 76.9881L88.301 71.3168L89.334 77.9847L93.5624 72.7266L93.8927 79.4659L98.6476 74.6786L98.2716 81.4155L103.501 77.1515L102.423 83.8122L108.069 80.1181L106.301 86.6296L112.302 83.546L109.863 89.837L116.154 87.3976L113.07 93.3991L119.582 91.6306L115.888 97.277L122.548 96.1988L118.284 101.428L125.021 101.052L120.234 105.807L126.973 106.137L121.715 110.366L128.383 111.399L122.712 115.054L129.235 116.779L123.213 119.821L129.52 122.218L123.213 124.615L129.235 127.657L122.712 129.382L128.383 133.037L121.715 134.07L126.973 138.299L120.234 138.629L125.021 143.384L118.284 143.008L122.548 148.237L115.888 147.159L119.582 152.805L113.07 151.037L116.154 157.038L109.863 154.599L112.302 160.89L106.301 157.806L108.069 164.318L102.423 160.624L103.501 167.285L98.2716 163.021L98.6476 169.757L93.8927 164.97L93.5624 171.709L89.334 166.451L88.301 173.119L84.6454 167.448L82.9212 173.971L79.8783 167.949L77.4817 174.256L75.085 167.949L72.0422 173.971L70.318 167.448L66.6623 173.119L65.6294 166.451L61.401 171.709L61.0707 164.97L56.3158 169.757L56.6918 163.021L51.4625 167.285L52.5406 160.624L46.8943 164.318L48.6628 157.806L42.6612 160.89L45.1006 154.599L38.8097 157.038L41.8933 151.037L35.3818 152.805L39.0758 147.159L32.4152 148.237L36.6792 143.008L29.9423 143.384L34.7296 138.629L27.9903 138.299L33.2483 134.07L26.5805 133.037L32.2518 129.382L25.7284 127.657L31.7507 124.615L25.4434 122.218L31.7507 119.821L25.7284 116.779L32.2518 115.054L26.5805 111.399L33.2483 110.366L27.9903 106.137L34.7296 105.807L29.9423 101.052L36.6792 101.428L32.4152 96.1988L39.0758 97.277L35.3818 91.6306L41.8933 93.3991L38.8097 87.3976L45.1006 89.837L42.6612 83.546L48.6628 86.6296L46.8943 80.1181L52.5406 83.8122L51.4625 77.1515L56.6918 81.4155L56.3158 74.6786L61.0707 79.4659L61.401 72.7266L65.6294 77.9847L66.6623 71.3168L70.318 76.9881L72.0422 70.4648L75.085 76.487L77.4817 70.1797Z" fill="#058221"/>
<circle cx="77.4815" cy="122.218" r="43.9073" fill="#085619"/>
<circle cx="77.4814" cy="122.218" r="35.7763" fill="#083C14"/>
<ellipse cx="84.7984" cy="138.48" rx="7.31789" ry="8.13099" fill="#7D9873"/>
<ellipse cx="76.6694" cy="102.703" rx="7.31789" ry="8.13099" fill="#7D9873"/>
<ellipse cx="65.2847" cy="135.228" rx="7.31789" ry="8.13099" fill="#7D9873"/>
<circle cx="53.0883" cy="114.086" r="3.25239" fill="#7D9873"/>
<circle cx="98.6215" cy="107.582" r="3.25239" fill="#7D9873"/>
<path d="M121.882 45.4365L122.719 47.6392L123.781 45.5361L124.383 47.8141L125.66 45.8336L126.021 48.1622L127.497 46.326L127.613 48.6794L129.273 47.0076L129.142 49.3603L130.968 47.8712L130.591 50.1972L132.563 48.9072L131.946 51.1811L134.042 50.1043L133.19 52.3012L135.387 51.4493L134.31 53.5451L136.584 52.9276L135.294 54.8993L137.62 54.5229L136.131 56.349L138.483 56.2177L136.811 57.8782L139.165 57.9935L137.329 59.4702L139.657 59.8309L137.677 61.1075L139.955 61.7096L137.852 62.7722L140.054 63.6092L137.852 64.4461L139.955 65.5087L137.677 66.1109L139.657 67.3875L137.329 67.7482L139.165 69.2248L136.811 69.3402L138.483 71.0007L136.131 70.8694L137.62 72.6955L135.294 72.319L136.584 74.2908L134.31 73.6732L135.387 75.7691L133.19 74.9172L134.042 77.1141L131.946 76.0372L132.563 78.3112L130.591 77.0211L130.968 79.3472L129.142 77.8581L129.273 80.2107L127.613 78.5389L127.497 80.8924L126.021 79.0562L125.66 81.3847L124.383 79.4042L123.781 81.6823L122.719 79.5792L121.882 81.7818L121.045 79.5792L119.982 81.6823L119.38 79.4042L118.103 81.3847L117.743 79.0562L116.266 80.8924L116.151 78.5389L114.49 80.2107L114.621 77.8581L112.795 79.3472L113.172 77.0211L111.2 78.3112L111.818 76.0372L109.722 77.1141L110.574 74.9172L108.377 75.7691L109.454 73.6732L107.18 74.2908L108.47 72.319L106.144 72.6955L107.633 70.8694L105.28 71.0007L106.952 69.3402L104.598 69.2248L106.435 67.7482L104.106 67.3875L106.087 66.1109L103.809 65.5087L105.912 64.4461L103.709 63.6092L105.912 62.7722L103.809 61.7096L106.087 61.1075L104.106 59.8309L106.435 59.4702L104.598 57.9935L106.952 57.8782L105.28 56.2177L107.633 56.349L106.144 54.5229L108.47 54.8993L107.18 52.9276L109.454 53.5451L108.377 51.4493L110.574 52.3012L109.722 50.1043L111.818 51.1811L111.2 48.9072L113.172 50.1972L112.795 47.8712L114.621 49.3603L114.49 47.0076L116.151 48.6794L116.266 46.326L117.743 48.1622L118.103 45.8336L119.38 47.8141L119.982 45.5361L121.045 47.6392L121.882 45.4365Z" fill="#058221"/>
<circle cx="121.882" cy="63.6095" r="15.3332" fill="#085619"/>
<circle cx="121.882" cy="63.6089" r="12.4937" fill="#083C14"/>
<ellipse cx="124.436" cy="69.2877" rx="2.55553" ry="2.83948" fill="#7D9873"/>
<ellipse cx="121.597" cy="56.7946" rx="2.55553" ry="2.83948" fill="#7D9873"/>
<ellipse cx="117.622" cy="68.152" rx="2.55553" ry="2.83948" fill="#7D9873"/>
<circle cx="113.362" cy="60.7696" r="1.13579" fill="#7D9873"/>
<circle cx="129.265" cy="58.4981" r="1.13579" fill="#7D9873"/>
<path d="M115.628 256.914C101.112 276.836 129.934 255.365 133.723 260.358C137.367 265.158 84.0846 290.998 111.246 253.721C138.407 216.443 151.542 225.733 156.382 229.259C153.454 235.909 140.464 222.827 115.628 256.914Z" fill="#083B14"/>
<path d="M223.812 190.868C229.99 214.731 211.077 184.17 205.718 187.42C200.565 190.545 240.62 234.16 229.061 189.509C217.502 144.857 201.872 148.669 196.075 150.17C196.354 157.43 213.243 150.039 223.812 190.868Z" fill="#083B14"/>
<circle cx="216.985" cy="94.5026" r="5.4518" fill="#7D9873"/>
<circle cx="221.831" cy="100.56" r="5.4518" fill="#7D9873"/>
<circle cx="226.676" cy="106.618" r="5.4518" fill="#7D9873"/>
<circle cx="226.676" cy="113.886" r="5.4518" fill="#7D9873"/>
<circle cx="221.831" cy="119.944" r="5.4518" fill="#7D9873"/>
<circle cx="220.62" cy="127.214" r="5.4518" fill="#7D9873"/>
<circle cx="225.465" cy="134.482" r="5.4518" fill="#7D9873"/>
<circle cx="232.735" cy="138.117" r="5.4518" fill="#7D9873"/>
<g opacity="0.5">
<circle cx="115.502" cy="194.778" r="10.3339" transform="rotate(-104.845 115.502 194.778)" fill="#7D9873"/>
<circle cx="124.248" cy="182.956" r="10.3339" transform="rotate(-104.845 124.248 182.956)" fill="#7D9873"/>
<circle cx="132.992" cy="171.137" r="10.3339" transform="rotate(-104.845 132.992 171.137)" fill="#7D9873"/>
<circle cx="146.31" cy="167.606" r="10.3339" transform="rotate(-104.845 146.31 167.606)" fill="#7D9873"/>
<circle cx="159.763" cy="173.543" r="10.3339" transform="rotate(-104.845 159.763 173.543)" fill="#7D9873"/>
<circle cx="173.67" cy="172.233" r="10.3339" transform="rotate(-104.845 173.67 172.233)" fill="#7D9873"/>
<circle cx="184.634" cy="159.824" r="10.3339" transform="rotate(-104.845 184.634 159.824)" fill="#7D9873"/>
<circle cx="187.765" cy="144.74" r="10.3339" transform="rotate(-104.845 187.765 144.74)" fill="#7D9873"/>
</g>
<circle cx="184.275" cy="182.944" r="6.66331" fill="#083B14"/>
<circle cx="163.679" cy="255.634" r="6.66331" fill="#083B14"/>
<circle cx="221.831" cy="236.249" r="6.66331" fill="#083B14"/>
<circle cx="55.2481" cy="188.395" r="8.48057" fill="#7D9873"/>
<circle cx="163.072" cy="76.9357" r="8.48057" fill="#7D9873" fill-opacity="0.53"/>
<circle cx="186.092" cy="216.26" r="8.48057" fill="#7D9873" fill-opacity="0.53"/>
<circle cx="188.515" cy="110.858" r="6.05755" fill="#7D9873" fill-opacity="0.9"/>
<path d="M79.4806 209.954C92.0121 212.094 95.4281 206.533 101.661 216.815C104.921 228.981 89.2587 228.216 76.7273 226.076C64.1958 223.936 55.0415 216.32 56.2806 209.065C62.8206 192.36 66.9492 207.814 79.4806 209.954Z" fill="#7D9873"/>
<path d="M78.218 217.347C81.974 217.989 85.0541 218.049 87.5622 217.98C88.8338 217.946 89.7062 217.899 90.3877 217.863C91.2812 217.816 91.8465 217.786 92.5527 217.822C92.8699 217.838 93.0191 217.867 93.0676 217.879C93.0705 217.881 93.0737 217.883 93.0773 217.885C93.1854 217.96 93.5983 218.283 94.3185 219.285C94.1187 219.345 93.8747 219.408 93.5792 219.469C90.031 220.212 84.2409 219.751 77.9899 218.683C72.7884 217.795 68.6528 215.816 66.1368 213.723C64.8898 212.686 64.2184 211.771 63.9048 211.141C63.812 210.954 63.7549 210.804 63.7201 210.686C63.7718 210.566 63.8224 210.45 63.8719 210.339C63.8807 210.345 63.8894 210.352 63.8982 210.358C63.9761 210.416 64.056 210.475 64.1379 210.536C65.0229 211.191 66.1395 212.018 67.352 212.819C70.0452 214.6 73.652 216.567 78.218 217.347ZM94.5956 219.874C94.5943 219.873 94.5946 219.854 94.6007 219.819C94.6001 219.858 94.597 219.875 94.5956 219.874ZM65.186 207.955C65.186 207.955 65.1834 207.958 65.178 207.964C65.1833 207.958 65.186 207.955 65.186 207.955Z" stroke="#083B14" stroke-opacity="0.4" stroke-width="15"/>
<path d="M14.0566 57.5518L256.359 229.586" stroke="#E70024" stroke-width="15" stroke-linecap="round"/>
</svg>
